<svg id="Layer_1" data-name="Layer 1" xmlns="http://www.w3.org/2000/svg" viewBox="0 0 88.9 96.75"><defs><style>.cls-1{fill:#373737;}</style></defs><title>logo</title><path class="cls-1" d="M77.7,98.07c0.17,0,.54-0.16.44-0.22L77.49,98Z" transform="translate(-2.93 -1.41)"/><path class="cls-1" d="M78.69,97.13a3.72,3.72,0,0,0-1.47.3c0.64-.09.39,0,1.15-0.11,0.1,0.06-.16.21-0.39,0.27,0.17,0-.1.18,0.31,0.1,0.45-.27.43-0.41,0-0.43A1.6,1.6,0,0,1,78.69,97.13Z" transform="translate(-2.93 -1.41)"/><path class="cls-1" d="M77.46,88.55l-0.06.07A0.13,0.13,0,0,0,77.46,88.55Z" transform="translate(-2.93 -1.41)"/><path class="cls-1" d="M76.82,83.28a0.16,0.16,0,0,0,.15,0A0.17,0.17,0,0,0,76.82,83.28Z" transform="translate(-2.93 -1.41)"/><path class="cls-1" d="M77.4,82.28l0,0.06C77.42,82.3,77.45,82.28,77.4,82.28Z" transform="translate(-2.93 -1.41)"/><path class="cls-1" d="M77.46,88.55l0.17-.18C77.42,88.4,77.49,88.47,77.46,88.55Z" transform="translate(-2.93 -1.41)"/><path class="cls-1" d="M76.81,96.45a0.45,0.45,0,0,0,.19,0l-0.09-.05Z" transform="translate(-2.93 -1.41)"/><path class="cls-1" d="M78.51,90.7v0l0.27,0H78.51Z" transform="translate(-2.93 -1.41)"/><path class="cls-1" d="M79.05,92.4a4,4,0,0,0-.78.13,0.86,0.86,0,0,1,.4,0Z" transform="translate(-2.93 -1.41)"/><path class="cls-1" d="M78.87,95.41l0.09,0Z" transform="translate(-2.93 -1.41)"/><path class="cls-1" d="M78.33,89.43l0.19-.06Z" transform="translate(-2.93 -1.41)"/><path class="cls-1" d="M75.83,38.92l0.1,0A0.12,0.12,0,0,0,75.83,38.92Z" transform="translate(-2.93 -1.41)"/><polygon class="cls-1" points="76.18 36.28 76.2 36.32 76.5 36.42 76.18 36.28"/><path class="cls-1" d="M77.88,80.56h0C77.94,80.6,77.92,80.58,77.88,80.56Z" transform="translate(-2.93 -1.41)"/><path class="cls-1" d="M76.65,65.65c-0.51.16-.64-0.29-1.2,0A2.55,2.55,0,0,0,76.65,65.65Z" transform="translate(-2.93 -1.41)"/><path class="cls-1" d="M76.86,96.38a0.16,0.16,0,0,1,0-.07A0.05,0.05,0,0,0,76.86,96.38Z" transform="translate(-2.93 -1.41)"/><path class="cls-1" d="M75.44,65.6h0l-0.05,0Z" transform="translate(-2.93 -1.41)"/><path class="cls-1" d="M77.12,76.86l-0.24.06A1.14,1.14,0,0,0,77.12,76.86Z" transform="translate(-2.93 -1.41)"/><path class="cls-1" d="M76.63,79.75l0.07-.08A0.14,0.14,0,0,0,76.63,79.75Z" transform="translate(-2.93 -1.41)"/><path class="cls-1" d="M76.2,75.48s0.12-.06,0-0.11l-0.07,0C76.25,75.4,76.29,75.43,76.2,75.48Z" transform="translate(-2.93 -1.41)"/><path class="cls-1" d="M76.09,74L76,74l0,0Z" transform="translate(-2.93 -1.41)"/><path class="cls-1" d="M74.85,43.66a4.34,4.34,0,0,1,.51,0C75,43.64,74.88,43.38,74.85,43.66Z" transform="translate(-2.93 -1.41)"/><path class="cls-1" d="M77.11,96.36a0.51,0.51,0,0,1-.25,0l0,0A0.89,0.89,0,0,0,77.11,96.36Z" transform="translate(-2.93 -1.41)"/><path class="cls-1" d="M71.78,75.76l0.06-.26A0.42,0.42,0,0,0,71.78,75.76Z" transform="translate(-2.93 -1.41)"/><path class="cls-1" d="M72.84,54.88l-0.06-.07S72.78,54.85,72.84,54.88Z" transform="translate(-2.93 -1.41)"/><path class="cls-1" d="M71.71,74.76a1.19,1.19,0,0,0,.38-0.17l-0.15,0Z" transform="translate(-2.93 -1.41)"/><path class="cls-1" d="M75.36,43.71h0Z" transform="translate(-2.93 -1.41)"/><path class="cls-1" d="M74.47,41.77c-0.08.23,0.67,0.29,1.07,0.45,0.13,0.33-.56,0-1,0a4.65,4.65,0,0,1,.71.64A0.83,0.83,0,0,1,75,42.78c0.52,0.32-.11.55,0.56,0.94l-0.19,0a8.65,8.65,0,0,1,1,.21c0,0.11.41,0.3-.07,0.23A0.46,0.46,0,0,0,76,44l0.18,0.16c-0.7-.06-0.2-0.2-0.7-0.33,0.17,0.27.67,0.65,0.44,0.76-0.67-.12-0.13-0.43-0.77-0.36L75.45,44c-1.09-.06.11-0.14-1-0.23-0.27.29,0.25,0.46,0,.74,0.35,0.16.55,0.1,0.9,0.26,0.55,0.62-1.76,0-1,.54,0.42,0.19,1.25.41,0.76,0.56l-0.73-.25c-0.14.31,1,.42,0.46,0.65A3.13,3.13,0,0,1,74.51,46c-0.64.09,0.39,0.25,0.36,0.42l-0.67-.11c0,0.37.43,0.85,0.47,1.26a1.16,1.16,0,0,0-.61-0.12c0.23,0.55-.28,1-0.77,1.42l0.54,0.29a0.5,0.5,0,0,1-.38,0c-0.25.14,0.36,0.08,0.57,0.21,0,0.11-.36.08-0.52,0,0.43,0.41.88,1.1,0.21,1.34l-0.16-.1c-0.28.23,1.14,0.5,0.56,0.65L74,51.15c-0.35.53,0.08,1.25-.87,1.55,0.82,0.21-.45.52,0.71,0.73a2.92,2.92,0,0,0-1.27.53,7,7,0,0,0,.8.46l-0.61-.08,0.61,0.29H72.65l0.14,0.16a0.73,0.73,0,0,1,.47-0.05c0.25,0.26-.5.49-0.82,0.46l0.46,0.6a1.06,1.06,0,0,1-.47-0.23c0.59,0.36-.65,0-0.11.31a1.93,1.93,0,0,1,.49.08,0.39,0.39,0,0,0-.29.62l-0.42-.09a6.18,6.18,0,0,0,.05,1.31,1.2,1.2,0,0,1,1,.11H72.49a2.16,2.16,0,0,1,.73.11,1.18,1.18,0,0,1-1-.08l0.2,0.22a5,5,0,0,1-.54-0.1c0.4,0.12-.68.29,0,0.48H71.75a6.44,6.44,0,0,0,.17,1,2.29,2.29,0,0,1,.87.33,1.72,1.72,0,0,0-.65.84,1.72,1.72,0,0,0,.79.22c-0.51,0-.48.31-0.84,0.11a1.68,1.68,0,0,0,.46,1A1,1,0,0,1,73,62c0.08,0.09-.23.19-0.47,0.16l-0.05,0c0.74,0.58-1.56,1.19-.52,1.68l-0.05,0,0.54,0.47c-0.09.21-.38-0.14-0.7,0,0.84,0.52-.14.77,0.42,1.19-1.52.28,0.08,1.11-.89,1.52l0.36,0c0.35,0.11-.2.13-0.28,0.21a1.24,1.24,0,0,1,.51,0c0.43,0.92-.51,1.91-0.82,2.88-0.09.35,1.85,0.15,1,.61l-0.67-.11c0.82,0.68,0,1.44.73,2.09a0.58,0.58,0,0,1-.35-0.09c-0.47.17,0,.54,0.39,0.52a1.57,1.57,0,0,1-.55.12c-0.28.16,0.63,0.33,0.16,0.43a0.28,0.28,0,0,1-.2-0.06c0.24,0.08,0,.45.52,0.32-0.25.27,0.28,0.47,0,.7,0.63,0.09-.27.46,0.61,0.44-0.9,0-.7.5-0.26,0.63-0.28,0-.27.16-0.65,0.13,0,0.19.21,0.34,0.67,0.27-1.06.43,0.92,0.61-.44,0.92a6,6,0,0,1,1.18,1.44c-0.9.08-.15-0.53-1.09-0.41,0.42,0.43,1.22.62,1,1.1a0.7,0.7,0,0,1-.55,0c0.42,0.42,0,.91.56,1.27a0.52,0.52,0,0,1-.25-0.06c0,0.08-.11.21,0.3,0.15l-0.12-.07a4.27,4.27,0,0,1,1.59.14c-1.18,0-.24.44-1.74,0.42a1,1,0,0,0,.55,0,0.58,0.58,0,0,1-.54.1c0.26,0.26.68,0.1,0.71,0.36a4.22,4.22,0,0,1-.52,0c0.4,0.08.81,0.16,0.67,0.41a0.32,0.32,0,0,1-.28,0c0.11,0.37,1.11.5,0.81,1-0.87,0-.26.18-1,0.32l0.26,0.19,0.34-.15c0,0.2.58,0.29,0.37,0.49L74,83.52l0.2,0.34,0.24-.25c0.41,0.14.93-.17,0.77,0.12a1,1,0,0,1-.39.37h0c0.25,0.06.51,0.11,0.36,0.29s-0.82.11-1,.16c0.63,0,.25.43,0.93,0.43a2.6,2.6,0,0,0-.62.08H75a0.81,0.81,0,0,1-.53.19c0,0.29.92-.25,0.57,0.14a0.93,0.93,0,0,1-.2,0c-0.15.36,0.43,0.57,0.24,0.91-0.72.23-.23-0.23-0.83,0,0.22,0.41,1.05.72,1,1.16l0.07-.09c1.05-.15-0.45.41,0.08,0.52a1.56,1.56,0,0,0-.47,0c-0.11.32,0.37,0.53,0.8,0.88H75.4a1.38,1.38,0,0,0-.12.68,1,1,0,0,0,.63,0c-1.38.9,1,.86-0.09,1.65a0.24,0.24,0,0,0-.26,0l0.35,0.36a1.87,1.87,0,0,0,.59-0.29,0.57,0.57,0,0,1,.54.15,1.26,1.26,0,0,0-1,.32c0.13,0,.29-0.06.43-0.1-0.74.42,0.91-.19,0.45,0.24l-0.24,0c0.15,0.08.49,0.1,0.45,0.24a2.17,2.17,0,0,1-.7,0c0.07,0.16,1.07.08,0.59,0.36-0.16,0-.19-0.13-0.35-0.17-0.57.32-.41,0.3-0.47,0.45v0l-0.2.36,0.15-.12c1.4-.15.36,0.36,1.32,0.4a1.67,1.67,0,0,0-1.08.22,1,1,0,0,1-.47.29c0.51,0-.31.33,0.43,0.33a0.75,0.75,0,0,1-.46.25c0.2,0.13.32-.13,0.56-0.18,0.72,0.09-.6.85,0.39,1,0.46,0.23,1.11.1,1.51,0.31a1.1,1.1,0,0,1-.71.12c-0.23.25-.14,0.36,0.12,0.45a1.24,1.24,0,0,0-.5.2c0.09,0.11.71-.12,0.48,0.13a6.23,6.23,0,0,1-.79.1c0.22,0.1.61,0.14,0.82,0.24a1.57,1.57,0,0,1-.75.07A1.08,1.08,0,0,0,78,97l0.15-.17a1,1,0,0,1-.54.15c-0.45,0,.11-0.27.3-0.33l0.15,0.07c1.06-.45-0.31-0.38-0.31-0.62L78.61,96l-0.73,0a1.34,1.34,0,0,1,.78-0.2c0.35-.27-0.33-0.05.07-0.32a0.22,0.22,0,0,1,.14,0l-0.28-.08c0.18,0,.56-0.19.47-0.06,0.38-.41-0.73-0.26-0.15-0.54H79c-0.38-.3-0.6.13-1.37,0L79,94.17l-0.6.13a0.27,0.27,0,0,1,.27-0.19,2.43,2.43,0,0,0-.65.12c0.48-.34-0.4-0.45.53-0.75a1.08,1.08,0,0,1-.66.16c1-.33-0.24-0.19.18-0.49,0.54-.09.3,0.15,0.72-0.15-0.91.13,0.1-.39-0.1-0.48C78,92.7,78.3,92.28,78,92.1a2,2,0,0,0,.47-0.85l0.12,0A0.63,0.63,0,0,1,77.75,91a1.73,1.73,0,0,1,.82-0.06l0-.16A0.64,0.64,0,0,1,78,90.65l0.54-.09c-0.08-.2-0.74-0.28-0.44-0.64-0.5.1-1.34,0.55-1.74,0.33a2.46,2.46,0,0,1,.85-0.14s-0.24,0-.14-0.11H77.6c0.17-.17-0.39,0-0.38-0.09,0.39-.09.26-0.14,0.57-0.2,0,0-.14.12,0,0.13a0.92,0.92,0,0,1,.52-0.43,1,1,0,0,1-.59,0c-0.08-.21.45-0.18,0.62-0.35a0.79,0.79,0,0,0-.61-0.06,0.88,0.88,0,0,1,.41-0.19c-0.28-.05-0.19-0.5-0.77-0.24l0,0h0c-0.65-.24.16-0.83-0.16-1.14l0.19,0A1.32,1.32,0,0,0,76.68,87a0.85,0.85,0,0,1,.56-0.24c-0.18-.14-0.4-0.11-0.13-0.41,0.37,0.1.29-.12,0.28,0.12,0.13-.25.43-0.36-0.15-0.48,0.51,0,.59-0.28.43-0.35l-0.33.22a0.31,0.31,0,0,1,0-.32L78,85.41c0.72-.58-1.5-0.54-0.23-1.12-0.48,0-.28.29-0.83,0.29a4.65,4.65,0,0,1,.95-0.66c0.32-.34-1-0.09-0.8-0.43a1.62,1.62,0,0,1-1.1,0,1.43,1.43,0,0,1,1.15-.31s0,0.08-.12.09a0.41,0.41,0,0,0,.45,0H77.18c0.22-.14.15-0.41,0.55-0.41a0.37,0.37,0,0,0-.5.13c0.3-.31-0.05-0.41.13-0.71a0.73,0.73,0,0,1-.4.1c0.23-.44-0.47-0.1-0.62-0.36,0.34-.21.86-0.07,0.52-0.3a1,1,0,0,1,.82-0.09c-0.49-.18.23-0.5,0.3-0.64l0.21,0.1A0.2,0.2,0,0,1,78.06,81l-0.46.14a0.29,0.29,0,0,1,.26-0.18,7.17,7.17,0,0,1-1.22.07c0.22-.13-0.3-0.27.32-0.39-0.17.34,0.62-.12,0.76,0.13-0.08,0-.09-0.1,0-0.19a0.26,0.26,0,0,1,.17,0c0.52-.37-0.72,0-0.75-0.36A0.58,0.58,0,0,0,77.7,80a1.09,1.09,0,0,1-.86.06c0.25-.24-0.23-0.19-0.21-0.3l-0.11.14a0.42,0.42,0,0,1-.45-0.23c0.27,0,.21.1,0.32,0-0.64-.08.6-0.43,0.16-0.6,0.23-.13.66-0.09,0.81-0.2-0.48-.19.46-0.32,0.05-0.53a1,1,0,0,1-.83,0L77,78.75l-0.72-.19a1.55,1.55,0,0,1,.25.32,0.81,0.81,0,0,0-.67,0c0.69-.26-0.45-0.3,0-0.56L77,78.22c0.49-.36-0.66-0.47-0.41-0.9l-0.19.15c-0.47,0-.09-0.24-0.29-0.35a2.35,2.35,0,0,0,.77-0.2c-0.29,0,0-.29-0.79-0.25l0.5-.22c0.18-.34-1.15-0.26-1-0.59a2.71,2.71,0,0,1,1,.07c0-.1.06-0.2-0.21-0.18,0.24-.08-0.55-0.24-0.18-0.37a0.84,0.84,0,0,1-.56-0.13,0.89,0.89,0,0,1,.19,0,1.24,1.24,0,0,0-.71,0c1.21-.41-0.15-0.89.88-1.23a2.19,2.19,0,0,1-.34-0.68c0.12,0,.2,0,0.16,0,0.35-.3-1.15-0.11-0.75-0.46,0.63-.2.35,0.15,0.59,0,1.3-.11-0.19-0.38.56-0.63l0.08,0c0.43-.18-0.51-0.38-0.42-0.65a1,1,0,0,0,.2,0,1.69,1.69,0,0,1-1.1-.75,1.61,1.61,0,0,0,.79,0,3.28,3.28,0,0,1-1-.17,3.31,3.31,0,0,1,1.06-.3l0,0.22c0.71-.13,0-0.28.08-0.4h0.31c-0.12-.33-0.9-0.32-0.85-0.68l-0.24,0c-0.78-.18.44-0.17-0.14-0.36l0.79-.07a3.92,3.92,0,0,1-.92-0.68,4.71,4.71,0,0,1,1.24.56,0.49,0.49,0,0,0-.45-0.5c0.08,0.05.27,0.11,0.15,0.17-0.62-.15-0.93-0.36-0.92-0.62,1.53,0,.38-0.67,1.57-0.85-0.58-.46.26-0.89,0.18-1.41-1.2.16,0-.15-1.25-0.15-0.08-.13-0.05-0.17,0-0.18l0.74-.35a1.14,1.14,0,0,1,.54.12,1.63,1.63,0,0,1,.85-0.26c-0.44,0-.62-0.11-0.45-0.26l-0.57.2c-0.64-.39,1-0.29.4-0.68l0.38,0.13c-0.23-.2,0-0.7-0.94-0.94a0.9,0.9,0,0,1,.56,0c0.17-.45-1-1.08-0.36-1.41l0.3,0.05C76.81,62.14,76.33,62,76.64,62A0.67,0.67,0,0,0,77,62c-0.1-.05-0.51-0.26-0.33-0.36L77,61.73C77.37,61.3,76.18,61,76,60.58a1.46,1.46,0,0,0,1.35-.43l0.12,0c0.15-.51-0.65-0.94-1-1.46,1-.21.51-1,1.09-1.4a1.24,1.24,0,0,1-.76-0.18c0.19-.09-0.57-0.38.23-0.27l0,0c0.8,0,.61-0.25.65-0.43l-1-.16c1.57-.29-0.4-1.32,1-1.4-0.25-.15-0.22-0.29-0.47-0.44l0.56,0.08a0.94,0.94,0,0,0,.2-0.85l0.39,0.14c0.07-.21-1.58-0.52-1.58-0.73l0.85,0.07c0.05-.39.85-0.65,0.15-1.16a0.77,0.77,0,0,1,.38.14c0.05-.18.68-0.6-0.48-0.73,0.75,0.12.14-.38-0.16-0.65l0.54,0.13a1.71,1.71,0,0,1-1-.62c0.08,0,.45,0,0.29.08,0.32-.14-0.49-0.25-0.15-0.43l0.33,0.15c0.08-.19-0.11-0.21-0.5-0.4-0.2-.17.21-0.35,0.71-0.29-0.3-.08-0.68-0.27-0.51-0.36a0.78,0.78,0,0,1,.35.12c0.44-.26-0.54-0.62,0-0.74a1.17,1.17,0,0,0,.33,0,0.78,0.78,0,0,1-.17.44,3.23,3.23,0,0,1,1.3.21c-0.35-.24-1.12-0.7-0.84-0.86h0.18l0.05,0c0.06,0,0-.09-0.05-0.15A0.33,0.33,0,0,0,78.62,48c0.42,0.06.28-.19,0.32-0.29A2.38,2.38,0,0,0,78,47.53s0.06,0,.07.11a0.13,0.13,0,0,0,0,.06l0,0a2,2,0,0,1,0,.27c-0.26-.14-0.48-0.28-0.15-0.33l-0.86-.34c0.8,0,1.27-.17,1.75-0.11a1.61,1.61,0,0,0-1-1.24c-0.11-.12.32,0,0.49,0a0.59,0.59,0,0,0,.2.2c-0.22-.24,0-0.56-0.68-0.78,0.38-.16.63,0.28,0.59-0.06l0.21,0.09c1.3-.34-1.6-1.46.05-1.79a0.54,0.54,0,0,1-.27,0c0.86-.61-0.19-1.79,1.05-2.28,0.27-.16-0.18-0.31-0.49-0.54l0.59,0.12-0.61-.42c-0.4-.47,1.58-0.15.78-0.83l-0.41-.06c0.12-.13-0.09-0.53.35-0.38-0.07,0-.39-0.17-0.17-0.17l0.3,0.09-0.41-.52c0.3-.21,1.19.41,1.37,0a2.11,2.11,0,0,0-1-.71,0.59,0.59,0,0,1-.54,0l-0.11-.19a5.22,5.22,0,0,0-2.49-.54l0.47,0.41-0.46-.05,0-.21c-0.44,0-.1.18,0.12,0.34a1.35,1.35,0,0,0-.51,0l0.78,0.5a1.93,1.93,0,0,0-.9-0.21,4.55,4.55,0,0,1,1,.39c-0.44,0-.76-0.14-0.46.1a0.88,0.88,0,0,1-.46-0.21,1.09,1.09,0,0,0,.47.56c-0.54,0,0,.45-0.83.19a1.53,1.53,0,0,1,.61.53c-1-.5-0.18.4-1.25,0,0.87,0.41.25,0.67,0.68,1.08-0.07,0-.21-0.11-0.15-0.12a1.35,1.35,0,0,1-.61.15,4.06,4.06,0,0,1,1.29.76,6.77,6.77,0,0,1-1.58-.48c0.62,0.16.53,0.49,1.05,0.56a2.42,2.42,0,0,1-.9,0c0.94,0.28.13,0.18,0.68,0.45-0.52.09-.9-0.18-0.67,0.13A0.85,0.85,0,0,1,74.47,41.77Zm0.38,5.85h0V47.5Zm-0.08.46a0.51,0.51,0,0,0,.06-0.2,0.51,0.51,0,0,1,.37.12A0.81,0.81,0,0,0,74.77,48.08Zm4-.17C78.85,48,78.73,48,78.62,48a0.39,0.39,0,0,0,0-.14l-0.07,0Z" transform="translate(-2.93 -1.41)"/><path class="cls-1" d="M78.09,47.64a0.12,0.12,0,0,1,0,0l-0.13,0,0.17,0.06v0Z" transform="translate(-2.93 -1.41)"/><path class="cls-1" d="M77.39,88.63h0l-0.07,0Z" transform="translate(-2.93 -1.41)"/><polygon class="cls-1" points="69.71 52.91 69.86 52.93 69.74 52.87 69.71 52.91"/><path class="cls-1" d="M76.09,91.55L76,91.62Z" transform="translate(-2.93 -1.41)"/><path class="cls-1" d="M76.24,92.66l-0.15.2A0.74,0.74,0,0,0,76.24,92.66Z" transform="translate(-2.93 -1.41)"/><path class="cls-1" d="M76.19,93.56l0.24,0h0Z" transform="translate(-2.93 -1.41)"/><path class="cls-1" d="M72.9,80.28l0,0C72.75,80.18,72.8,80.23,72.9,80.28Z" transform="translate(-2.93 -1.41)"/><path class="cls-1" d="M74.79,84.1A1.54,1.54,0,0,1,74.51,84C74.48,84.09,74.48,84.15,74.79,84.1Z" transform="translate(-2.93 -1.41)"/><path class="cls-1" d="M71.77,75.79h0a0.13,0.13,0,0,1,0,0v0Z" transform="translate(-2.93 -1.41)"/><path class="cls-1" d="M74.49,83.83c-0.1.09-.06,0.14,0,0.19S74.58,83.87,74.49,83.83Z" transform="translate(-2.93 -1.41)"/><path class="cls-1" d="M77,97.2v0l0.09,0Z" transform="translate(-2.93 -1.41)"/><path class="cls-1" d="M77.06,97.22l0.08,0S77.12,97.21,77.06,97.22Z" transform="translate(-2.93 -1.41)"/><path class="cls-1" d="M77.3,97.3l-0.16,0S77.14,97.32,77.3,97.3Z" transform="translate(-2.93 -1.41)"/><path class="cls-1" d="M76.9,96l-0.2,0Z" transform="translate(-2.93 -1.41)"/><path class="cls-1" d="M76.75,95.72c0,0.09-.36.32-0.2,0.4l0.16,0C76.39,96.12,77.1,95.7,76.75,95.72Z" transform="translate(-2.93 -1.41)"/><path class="cls-1" d="M78.78,93.66L78.7,94a0.59,0.59,0,0,1,.54-0.14C79.77,93.32,78.79,94,78.78,93.66Z" transform="translate(-2.93 -1.41)"/><path class="cls-1" d="M78.85,92.74c0.14,0.12.3-.08,0.42-0.11A0.35,0.35,0,0,0,78.85,92.74Z" transform="translate(-2.93 -1.41)"/><path class="cls-1" d="M77.42,86.61l0.5-.09A0.73,0.73,0,0,0,77.42,86.61Z" transform="translate(-2.93 -1.41)"/><polygon class="cls-1" points="71.66 84.51 71.37 84.68 71.84 84.65 71.66 84.51"/><polygon class="cls-1" points="75.12 83.15 75.2 83.18 74.98 83.03 75.12 83.15"/><path class="cls-1" d="M76.61,74.19L76,74.27C76.1,74.34,76.81,74.31,76.61,74.19Z" transform="translate(-2.93 -1.41)"/><path class="cls-1" d="M75.77,69.69c0.31-.06.52-0.19,0.21-0.26A0.54,0.54,0,0,0,75.77,69.69Z" transform="translate(-2.93 -1.41)"/><polygon class="cls-1" points="74.56 54.77 74.76 54.89 74.61 54.7 74.56 54.77"/><path class="cls-1" d="M2.95,45.26h0Z" transform="translate(-2.93 -1.41)"/><path class="cls-1" d="M3.65,45.31c0.12,0,.27,0,0.19-0.08a2.45,2.45,0,0,1-.29.06,0.31,0.31,0,0,1-.16,0H3.17a2.62,2.62,0,0,0,.49,0S3.66,45.31,3.65,45.31Z" transform="translate(-2.93 -1.41)"/><path class="cls-1" d="M13.9,45.28l-0.07,0A0.12,0.12,0,0,0,13.9,45.28Z" transform="translate(-2.93 -1.41)"/><path class="cls-1" d="M20.25,44.18a0.1,0.1,0,0,0,0,.12A0.11,0.11,0,0,0,20.25,44.18Z" transform="translate(-2.93 -1.41)"/><path class="cls-1" d="M21.51,44.43l-0.08,0S21.5,44.47,21.51,44.43Z" transform="translate(-2.93 -1.41)"/><path class="cls-1" d="M13.9,45.28l0.19,0.09C14.08,45.24,14,45.29,13.9,45.28Z" transform="translate(-2.93 -1.41)"/><path class="cls-1" d="M5.06,45.14L5,45.17l0.09,0v0Z" transform="translate(-2.93 -1.41)"/><path class="cls-1" d="M11.12,45.8H11.07a0.9,0.9,0,0,0,0,.12Z" transform="translate(-2.93 -1.41)"/><path class="cls-1" d="M9,45.87A0.45,0.45,0,0,0,9,45.6a0.17,0.17,0,0,1-.1.14A0.5,0.5,0,0,0,9,45.87Z" transform="translate(-2.93 -1.41)"/><path class="cls-1" d="M5.53,45.5h0Z" transform="translate(-2.93 -1.41)"/><path class="cls-1" d="M12.69,45.76a0.45,0.45,0,0,0,0,.1A0.31,0.31,0,0,0,12.69,45.76Z" transform="translate(-2.93 -1.41)"/><path class="cls-1" d="M49.08,3.86h0S49.09,3.84,49.08,3.86Z" transform="translate(-2.93 -1.41)"/><polygon class="cls-1" points="46.72 0.01 46.72 0.04 46.72 0.05 46.72 0.01"/><path class="cls-1" d="M23.68,44.33h0C23.64,44.4,23.66,44.38,23.68,44.33Z" transform="translate(-2.93 -1.41)"/><path class="cls-1" d="M39.33,33.55c-0.51-.18-0.25-0.7-0.86-0.83A2,2,0,0,0,39.33,33.55Z" transform="translate(-2.93 -1.41)"/><path class="cls-1" d="M5.11,45.15h0Z" transform="translate(-2.93 -1.41)"/><path class="cls-1" d="M38.47,32.72h0Z" transform="translate(-2.93 -1.41)"/><path class="cls-1" d="M28,42.23a1.19,1.19,0,0,0-.15-0.18A0.78,0.78,0,0,0,28,42.23Z" transform="translate(-2.93 -1.41)"/><path class="cls-1" d="M24.45,43l0.11,0A0.18,0.18,0,0,0,24.45,43Z" transform="translate(-2.93 -1.41)"/><path class="cls-1" d="M29.25,40.7c0.06,0,.11.07,0.13,0l-0.05,0C29.35,40.7,29.34,40.75,29.25,40.7Z" transform="translate(-2.93 -1.41)"/><path class="cls-1" d="M30.88,39.72l-0.09-.07,0,0.06h0.12Z" transform="translate(-2.93 -1.41)"/><path class="cls-1" d="M47.73,9.21a1,1,0,0,1,.24,0C47.79,9.17,47.8,8.9,47.73,9.21Z" transform="translate(-2.93 -1.41)"/><path class="cls-1" d="M5.06,45.19a0.08,0.08,0,0,1,.06,0H5.05S5,45.18,5.06,45.19Z" transform="translate(-2.93 -1.41)"/><path class="cls-1" d="M27.16,37.06L27.43,37A0.48,0.48,0,0,0,27.16,37.06Z" transform="translate(-2.93 -1.41)"/><path class="cls-1" d="M42.83,21l0-.08S42.79,20.92,42.83,21Z" transform="translate(-2.93 -1.41)"/><path class="cls-1" d="M28.07,36.49a1,1,0,0,0,.32.22,0.86,0.86,0,0,0,0-.14Z" transform="translate(-2.93 -1.41)"/><path class="cls-1" d="M48,9.67h0Z" transform="translate(-2.93 -1.41)"/><path class="cls-1" d="M48,7.27c-0.09.26,0.22,0.16,0.36,0.24,0,0.33-.24.11-0.41,0.2a2.93,2.93,0,0,1,.17.55,0.13,0.13,0,0,1-.13,0c0.18,0.25-.17.62,0.09,0.92L48,9.17a1.53,1.53,0,0,1,.45,0c0,0.12.16,0.26-.07,0.27,0-.07-0.06-0.1-0.12-0.14L48.3,9.49C48,9.54,48.24,9.3,48,9.25a1.28,1.28,0,0,1,.08.77c-0.33,0,0-.46-0.33-0.27L48,9.49c-0.55.12,0.09-.17-0.49-0.07-0.22.35,0,.45-0.2,0.79,0.16,0.12.28,0,.44,0.15,0.19,0.61-1,.22-0.65.71,0.2,0.15.64,0.3,0.31,0.52L47,11.41c-0.17.34,0.52,0.35,0.12,0.65A1.82,1.82,0,0,1,47,11.79c-0.42.16,0.18,0.23,0.12,0.42l-0.39-.06c-0.08.39,0.08,0.89,0,1.32a0.42,0.42,0,0,0-.37-0.1,2.23,2.23,0,0,1-.94,1.5l0.31,0.31a0.24,0.24,0,0,1-.26,0c-0.23.14,0.24,0.09,0.35,0.23s-0.29.07-.37,0c0.17,0.44.31,1.22-.27,1.42l-0.09-.11c-0.29.21,0.7,0.63,0.22,0.74l-0.05-.08c-0.45.52-.38,1.34-1.24,1.52,0.58,0.36-.56.45,0.3,0.88A3,3,0,0,0,43,20a5.17,5.17,0,0,0,.47.64L43,20.4l0.38,0.44-0.62-.17,0,0.2a0.54,0.54,0,0,1,.41.06c0.1,0.33-.62.38-0.87,0.26l0.06,0.36,0,0.36a0.76,0.76,0,0,1-.28-0.36c0.32,0.52-.53-0.22-0.24.26a1.35,1.35,0,0,1,.37.23,0.49,0.49,0,0,0-.55.52l-0.31-.22a7.38,7.38,0,0,0-.59,1.28,0.93,0.93,0,0,1,.79.48l-0.54-.26a1.63,1.63,0,0,1,.56.38,0.92,0.92,0,0,1-.76-0.44l0,0.29a4,4,0,0,1-.4-0.3c0.27,0.27-.74,0-0.26.44l-0.16-.09a7.1,7.1,0,0,0-.44,1,1.87,1.87,0,0,1,.54.7,2.39,2.39,0,0,0-1,.48,1.47,1.47,0,0,0,.52.6c-0.41-.27-0.59,0-0.77-0.32a1.88,1.88,0,0,0-.26,1.15,0.89,0.89,0,0,1,.42.21c0,0.13-.3.05-0.48-0.11l0-.05c0.23,1-2,.16-1.52,1.18l0-.05,0.09,0.73c-0.22.12-.2-0.35-0.55-0.43,0.28,1-.65.55-0.52,1.26-1.34-.78-0.79.92-1.8,0.57l0.27,0.23c0.16,0.33-.25,0-0.36,0a1.16,1.16,0,0,1,.4.33,1.92,1.92,0,0,1-1.19,1c-0.52.2-1.15,0.27-1.63,0.48s1,1.54.11,1.2l-0.31-.6c-0.08,1.1-1.17,1-1.39,1.93a0.55,0.55,0,0,1-.11-0.35c-0.4-.29-0.48.32-0.26,0.63a1.35,1.35,0,0,1-.39-0.38c-0.28-.13,0,0.72-0.31.39a0.27,0.27,0,0,1,0-.2c0,0.25-.41.23,0,0.62-0.37,0-.3.52-0.65,0.38,0.21,0.6-.55,0-0.15.76-0.44-.74-0.78-0.33-0.72.1a5.45,5.45,0,0,1-.39-0.49c-0.16.12-.24,0.35,0,0.71-0.82-.68-0.24,1.11-1,0.09A4.81,4.81,0,0,1,25,39.55c-0.34-.74.5-0.35,0.09-1.11-0.29.54-.26,1.3-0.8,1.37-0.16,0-.08-0.35-0.1-0.49-0.32.53-.9,0.42-1.15,1a0.4,0.4,0,0,1,0-.23c-0.07.06-.24,0-0.09,0.3l0-.12a2.76,2.76,0,0,1,.17,1.38c-0.24-1-.53-0.05-0.78-1.31a0.68,0.68,0,0,0,.06.48,0.39,0.39,0,0,1-.2-0.42c-0.23.31,0,.6-0.26,0.71A2.91,2.91,0,0,1,22,40.67c0,0.36,0,.72-0.32.69,0-.1-0.09-0.21,0-0.23-0.38.22-.38,1.1-0.94,1-0.09-.7-0.23-0.16-0.44-0.71l-0.18.26,0.19,0.23c-0.21.07-.27,0.54-0.51,0.42L19.81,42l-0.36.25,0.29,0.13c-0.13.36,0.3,0.68,0,.63,0-.08-0.37.06-0.37-0.21h0a0.31,0.31,0,0,1-.37.35c-0.09-.16-0.17-0.6-0.23-0.7,0,0.48-.47.31-0.48,0.8a1.18,1.18,0,0,0-.1-0.45v0.38A0.41,0.41,0,0,1,18,42.83c-0.32,0,.28.63-0.16,0.45a0.53,0.53,0,0,1,0-.15c-0.4,0-.65.42-1,0.35-0.22-.47.26-0.21,0-0.59-0.45.24-.84,0.9-1.35,0.88l0.1,0c0.07,0.67-.42-0.24-0.59.12a0.55,0.55,0,0,0,0-.3,2.35,2.35,0,0,0-1.08.62l0-.17a3.14,3.14,0,0,0-.73,0c0,0.16-.16.16-0.05,0.36-0.76-.68-1.18.63-1.83,0.1,0.07,0,.15-0.14.09-0.13l-0.24.1L11,44.6a0.48,0.48,0,0,0,.2.27,0.39,0.39,0,0,1-.3.25c0.21-.16,0-0.33-0.14-0.43a1.59,1.59,0,0,1,0,.19c-0.29-.32,0,0.41-0.38.21V45a0.77,0.77,0,0,1-.38.2c-0.08-.21.13-0.12,0.13-0.3-0.2,0-.36.45-0.56,0.26,0.08-.07.2-0.08,0.28-0.15a0.37,0.37,0,0,0-.38-0.17h0l-0.34-.06L9.2,44.82C9,45.35,8.7,45,8.38,45.3c0.32-.31,0-0.17.06-0.37-0.09,0-.22-0.09-0.19-0.15a1.78,1.78,0,0,0-.48.17c0-.06-0.17,0-0.14-0.13-0.2.08,0.05,0.09,0,.17-0.31.22-.75-0.14-1.21,0.13a4.65,4.65,0,0,1-.84.3c-0.12-.06.1-0.13,0.1-0.13a1.16,1.16,0,0,0-.54,0s0,0-.06-0.08a0.56,0.56,0,0,1-.31.07A0.72,0.72,0,0,1,5,45.17a4.13,4.13,0,0,1-.55.11s0.11-.05.18-0.08a4.17,4.17,0,0,0-.61.09l0.13,0c-0.08,0,0,0,0,0a0.25,0.25,0,0,1,.27,0H4.28a1.61,1.61,0,0,0,.8,0L5,45.4l0.28-.1c0.06,0,.1.11,0,0.12a3,3,0,0,1,.33,0s0,0,0,0l0.19,0s0,0.11-.09.08a6.2,6.2,0,0,1,.67,0h0c0.47,0,0-.13.39-0.3l0.24,0.37,0-.15s0.14,0,.13.08c0.18-.11,0-0.07.07-0.17,0.24,0.16.64-.09,0.7,0.2,0.08-.14-0.23-0.1,0-0.21,0.08,0.32.28-.07,0.5,0.08-0.06.18-.26,0.08,0,0.24,0.11-.3.42,0.07,0.6,0,0-.26.39-0.1,0.68-0.22a3.65,3.65,0,0,0,.87.23v0.05c0-.31.32-0.27,0.52-0.35a0.36,0.36,0,0,1-.12.37h0.2a0.3,0.3,0,0,1,.22-0.21l0,0.25a1.47,1.47,0,0,1,.86-0.19c0-.26-0.36-0.66,0-0.89a0.55,0.55,0,0,1,0,.44s0.09-.13.16-0.08l-0.11.25c0.17,0.09.05-.2,0.18-0.2,0,0.2.11,0.13,0.11,0.29s-0.12-.07-0.16,0a0.59,0.59,0,0,1,.41.27,0.26,0.26,0,0,1,.06-0.31c0.26,0,.13.24,0.3,0.33,0-.15.24,0,0.19-0.33a0.33,0.33,0,0,1,.16.22c0.12-.15.64-0.11,0.42-0.44l0,0.22,0,0.21h0c0.38-1,1-.19,1.37-0.41h0a1.64,1.64,0,0,0,.7-0.53,0.35,0.35,0,0,1,.23.32c0.18-.13.17-0.3,0.5-0.15-0.15.26,0.12,0.17-.17,0.2,0.28,0.05.4,0.25,0.59-.16,0,0.35.3,0.38,0.4,0.25L17.21,45a0.67,0.67,0,0,1,.39-0.07l0,0.46c0.7,0.45.72-1.14,1.39-.29,0-.36-0.36-0.16-0.34-0.57a3.52,3.52,0,0,1,.79.59c0.42,0.18.1-.78,0.51-0.7a0.84,0.84,0,0,1-.08-0.85,0.77,0.77,0,0,1,.42.82c-0.05,0-.1,0-0.12-0.08a0.23,0.23,0,0,0,0,.35l0-.18c0.18,0.14.51,0,.53,0.34,0.13-.22,0-0.31-0.18-0.36a3.06,3.06,0,0,0,.88,0,0.4,0.4,0,0,1-.15-0.29c0.55,0.08.09-.39,0.37-0.58,0.28,0.21.17,0.68,0.41,0.34a0.57,0.57,0,0,1,.19.64c0.16-.45.63,0,0.83,0.05l-0.1.2a0.3,0.3,0,0,1,.22-0.17L23,44.27a0.25,0.25,0,0,1,.25.16,4.11,4.11,0,0,1-.26-1c0.19,0.15.28-.33,0.52,0.14-0.44,0,.24.48,0,0.67a0.17,0.17,0,0,1,.23-0.07,0.15,0.15,0,0,1,0,.14c0.55,0.32-.06-0.61.32-0.73,0.07,0.3.31,0.5,0.35,0.42-0.16,0-.27-0.44-0.22-0.7,0.33,0.13.19-.26,0.32-0.28L24.27,43c-0.07-.3.06-0.3,0.18-0.46,0.11,0.21-.08.22,0,0.29,0-.58.63,0.33,0.73-0.11,0.2,0.14.26,0.53,0.42,0.61,0.11-.49.49,0.26,0.65-0.18a0.64,0.64,0,0,1-.21-0.71l-0.36.49,0-.7a2,2,0,0,1-.31.35A0.54,0.54,0,0,0,25.25,42c0.47,0.48.23-.51,0.64-0.23l0.46,1C26.91,43,26.72,42,27.29,42l-0.23-.1c-0.14-.41.25-0.17,0.31-0.4a1.62,1.62,0,0,0,.47.56c-0.14-.23.33-0.15,0-0.81l0.43,0.32c0.45,0-.12-1.13.27-1.21a1.93,1.93,0,0,1,.31.92C29,41.21,29.12,41.21,29,41c0.18,0.16.05-.6,0.34-0.36,0-.17-0.22-0.51-0.08-0.55a0.66,0.66,0,0,1,.1.16,0.93,0.93,0,0,0-.26-0.62c1,0.82.88-.61,1.71,0a3.28,3.28,0,0,1,.56-0.72c0.05,0.1.11,0.16,0,.15,0.49,0.1-.45-1,0.1-0.92,0.53,0.4,0,.39.26,0.52,0.78,1,.29-0.41.95,0v0.1c0.43,0.23.13-.67,0.46-0.79a0.75,0.75,0,0,0,.12.16,1.94,1.94,0,0,1,.11-1.45,1.33,1.33,0,0,0,.42.66c0.07-.15-0.54-0.62-0.42-0.91a3,3,0,0,1,.92.62l-0.19.19c0.55,0.46.26-.24,0.45-0.24l0.18,0.25c0.26-.34-0.24-0.95.14-1.18L34.68,36c-0.32-.74.44,0.2,0.25-0.39l0.58,0.55a5.33,5.33,0,0,1,0-1.23,3.6,3.6,0,0,1,.29,1.38A0.56,0.56,0,0,0,36,35.56c0,0.1.08,0.3-.05,0.25a1,1,0,0,1-.07-1.2c1,1.15.85-.29,1.84,0.39,0-.8,1-0.63,1.38-1.17-1-.65.11-0.16-0.81-1,0.05-.16.1-0.19,0.17-0.15l0.84,0.14a0.94,0.94,0,0,1,.31.46c0.29-.2.48,0.24,0.86,0.28-0.35-.25-0.39-0.51-0.14-0.55l-0.6-.16c-0.18-.79,1,0.36.86-0.43l0.19,0.37c0-.34.6-0.71,0-1.5a0.7,0.7,0,0,1,.42.36c0.51-.36,0-1.67.72-1.67l0.21,0.21c0-.14-0.32-0.48,0-0.42a0.5,0.5,0,0,0,.25.18c0-.11-0.24-0.54,0-0.56l0.19,0.29c0.64-.25-0.13-1.17,0-1.67a1.19,1.19,0,0,0,1.38.13L44,28.25c0.43-.52,0-1.35.06-2,1,0.15.93-.94,1.64-1.24a0.84,0.84,0,0,1-.55-0.45c0.2-.05-0.3-0.61.32-0.25l0,0c0.67,0.24.64-.12,0.76-0.31l-0.8-.47c1.46,0.08.21-1.64,1.4-1.42-0.14-.23-0.07-0.39-0.21-0.62L47,21.7a1.57,1.57,0,0,0,.46-1l0.27,0.23c0.12-.26-1.09-0.86-1-1.11L47.36,20c0.16-.46.85-0.71,0.46-1.38a0.42,0.42,0,0,1,.25.21c0.1-.21.65-0.71-0.18-0.92,0.53,0.19.19-.46,0-0.79l0.37,0.17a1.15,1.15,0,0,1-.59-0.77c0.07-.05.32,0,0.19,0.1,0.26-.16-0.29-0.3,0-0.51l0.2,0.18c0.1-.23,0-0.25-0.26-0.47s0.21-.42.54-0.35c-0.19-.1-0.41-0.31-0.29-0.42a0.32,0.32,0,0,1,.22.13c0.34-.33-0.25-0.72.16-0.89a0.4,0.4,0,0,0,.21,0,1.62,1.62,0,0,1-.19.54,1.12,1.12,0,0,1,.83.19c-0.2-.29-0.63-0.8-0.42-1H49l0,0a0.14,0.14,0,0,0,0-.17,0.37,0.37,0,0,0,.13-0.19c0.25,0,.19-0.27.22-0.4-0.32-.08-0.24-0.23-0.54-0.14,0,0,0,0,0,.12a0.14,0.14,0,0,0,0,.06l0,0,0,0.33c-0.15-.15-0.26-0.29-0.05-0.39L48.31,13c0.49-.05.79-0.34,1.06-0.32a1.75,1.75,0,0,0-.45-1.35c0-.13.18-0.09,0.27-0.12a0.48,0.48,0,0,0,.1.21,1,1,0,0,0-.3-0.82c0.21-.25.3,0.23,0.3-0.17l0.1,0.08c0.62-.68-0.64-1.41.1-2.14a0.16,0.16,0,0,1-.11.08,3.88,3.88,0,0,0,.18-1.48,5.17,5.17,0,0,1,.19-1.47A0.58,0.58,0,0,0,49.61,5l0.14,0-0.14-.3a4.3,4.3,0,0,0,.11-1.2l-0.06.06a2.09,2.09,0,0,1,0-.55,0.16,0.16,0,0,1,0-.13h0l0-.45a1,1,0,0,0,0-.45,1.12,1.12,0,0,0-.21-0.47,0.47,0.47,0,0,1-.16.2V1.45s0.19-.16.1,0.26l0,0.29V2.1l0.07-.25a1,1,0,0,0,0,.33,0.48,0.48,0,0,0,0,.12V2.59s0-.13-0.09.06,0.09-.13.08,0.1a0.35,0.35,0,0,0-.08.26s0,0,0-.08a1.64,1.64,0,0,0,0,.46,0.86,0.86,0,0,1-.21.47,1.1,1.1,0,0,1,0,.4C49,4,49,4.76,48.81,4.67a3.5,3.5,0,0,1,0,1,0.08,0.08,0,0,1,0-.09,1,1,0,0,1-.23.32,0.82,0.82,0,0,1,.31.5c-0.28.19-.25-0.17-0.48-0.13a1.77,1.77,0,0,0,.28.35,0.52,0.52,0,0,1-.34.19c0.31,0.07,0,.16.18,0.33-0.22.21-.33,0-0.3,0.29C48,7.52,48,7.27,48,7.27Zm-1.16,6.24h0l0-.13Zm-0.18.5a1,1,0,0,0,.09-0.21c0.12,0,.24.07,0.22,0.12A0.46,0.46,0,0,0,46.65,14Zm2.64-.45c0,0.1,0,.11-0.11.11a0.83,0.83,0,0,0,0-.16l0,0Z" transform="translate(-2.93 -1.41)"/><path class="cls-1" d="M48.89,13.29a0.12,0.12,0,0,1,0,0l-0.08,0,0.1,0.06v0Z" transform="translate(-2.93 -1.41)"/><path class="cls-1" d="M13.82,45.24h0l0,0Z" transform="translate(-2.93 -1.41)"/><polygon class="cls-1" points="39.97 18.94 40.08 19 40.01 18.91 39.97 18.94"/><path class="cls-1" d="M10.72,44.69a0.11,0.11,0,0,0,0-.06A0.15,0.15,0,0,0,10.72,44.69Z" transform="translate(-2.93 -1.41)"/><path class="cls-1" d="M9.44,44.82l-0.19,0A0.74,0.74,0,0,0,9.44,44.82Z" transform="translate(-2.93 -1.41)"/><path class="cls-1" d="M8.45,44.84a0.36,0.36,0,0,0,0,.08h0V44.84Z" transform="translate(-2.93 -1.41)"/><path class="cls-1" d="M23.09,40.09l0,0C23.16,39.93,23.12,40,23.09,40.09Z" transform="translate(-2.93 -1.41)"/><path class="cls-1" d="M19.22,42.8a1.2,1.2,0,0,1,.08-0.24C19.22,42.56,19.15,42.57,19.22,42.8Z" transform="translate(-2.93 -1.41)"/><path class="cls-1" d="M27.13,37.07h0l0,0h0Z" transform="translate(-2.93 -1.41)"/><path class="cls-1" d="M19.51,42.5a0.13,0.13,0,0,0-.2.06A0.18,0.18,0,0,0,19.51,42.5Z" transform="translate(-2.93 -1.41)"/><polygon class="cls-1" points="1.25 43.79 1.2 43.79 1.19 43.8 1.25 43.79"/><path class="cls-1" d="M4.12,45.21h0Z" transform="translate(-2.93 -1.41)"/><path class="cls-1" d="M4,45.23l0.11,0Z" transform="translate(-2.93 -1.41)"/><path class="cls-1" d="M5.49,45.14l0,0A0.06,0.06,0,0,0,5.49,45.14Z" transform="translate(-2.93 -1.41)"/><path class="cls-1" d="M5.89,45.11a1.11,1.11,0,0,0-.37,0v0C5.57,45,5.79,45.18,5.89,45.11Z" transform="translate(-2.93 -1.41)"/><path class="cls-1" d="M7.56,45.66l-0.34-.05c0.06,0.06.14,0.14,0,.15C7.64,46,7.12,45.63,7.56,45.66Z" transform="translate(-2.93 -1.41)"/><path class="cls-1" d="M8.62,45.77c-0.18,0,0,.11,0,0.15S8.76,45.84,8.62,45.77Z" transform="translate(-2.93 -1.41)"/><path class="cls-1" d="M16.23,45.14l0.05,0.33C16.41,45.39,16.25,45.34,16.23,45.14Z" transform="translate(-2.93 -1.41)"/><polygon class="cls-1" points="14.28 41.65 14.1 41.47 14.11 41.8 14.28 41.65"/><polygon class="cls-1" points="15.78 43.94 15.73 44 15.93 43.82 15.78 43.94"/><path class="cls-1" d="M30.86,40.31l-0.37-.48C30.47,40,30.82,40.56,30.86,40.31Z" transform="translate(-2.93 -1.41)"/><path class="cls-1" d="M35.06,36.44c0.25,0.2.51,0.25,0.38,0A0.69,0.69,0,0,0,35.06,36.44Z" transform="translate(-2.93 -1.41)"/><polygon class="cls-1" points="43.22 22.19 43.33 22.38 43.28 22.11 43.22 22.19"/><path class="cls-1" d="M48.58,1.84c-0.17,0-.56,0-0.48.1l0.66,0Z" transform="translate(-2.93 -1.41)"/><path class="cls-1" d="M47.39,2.53a3.45,3.45,0,0,0,1.5.07c-0.64-.07-0.38-0.11-1.14-0.18-0.08-.09.2-0.18,0.45-0.17-0.17,0,.14-0.15-0.28-0.18-0.51.15-.52,0.31-0.09,0.45A1.49,1.49,0,0,1,47.39,2.53Z" transform="translate(-2.93 -1.41)"/><path class="cls-1" d="M48,12l0.06-.08A0.13,0.13,0,0,0,48,12Z" transform="translate(-2.93 -1.41)"/><path class="cls-1" d="M49.73,17.71a0.15,0.15,0,0,0-.16,0A0.16,0.16,0,0,0,49.73,17.71Z" transform="translate(-2.93 -1.41)"/><path class="cls-1" d="M49.49,19a0.51,0.51,0,0,0,0-.08S49.44,19,49.49,19Z" transform="translate(-2.93 -1.41)"/><path class="cls-1" d="M48,12l-0.16.21C48.07,12.16,48,12.09,48,12Z" transform="translate(-2.93 -1.41)"/><path class="cls-1" d="M49.08,3.67A0.45,0.45,0,0,0,48.9,3.6L49,3.67h0.1Z" transform="translate(-2.93 -1.41)"/><path class="cls-1" d="M46.84,9.59v0l-0.27,0Z" transform="translate(-2.93 -1.41)"/><path class="cls-1" d="M46.33,7.62a3.45,3.45,0,0,0,.78-0.06,0.77,0.77,0,0,1-.4,0Z" transform="translate(-2.93 -1.41)"/><path class="cls-1" d="M46.86,4.32l-0.08,0Z" transform="translate(-2.93 -1.41)"/><path class="cls-1" d="M47.06,11l-0.19.07Z" transform="translate(-2.93 -1.41)"/><path class="cls-1" d="M89.43,38.12v0.1A0.12,0.12,0,0,0,89.43,38.12Z" transform="translate(-2.93 -1.41)"/><polygon class="cls-1" points="88.83 39.39 88.81 39.42 88.82 39.74 88.83 39.39"/><path class="cls-1" d="M49.72,21h0C49.65,21,49.67,21,49.72,21Z" transform="translate(-2.93 -1.41)"/><path class="cls-1" d="M61.4,34.13c0.15-.52.64-0.31,0.75-0.94A2.23,2.23,0,0,0,61.4,34.13Z" transform="translate(-2.93 -1.41)"/><path class="cls-1" d="M49,3.72a0.17,0.17,0,0,1,0,.08A0.05,0.05,0,0,0,49,3.72Z" transform="translate(-2.93 -1.41)"/><path class="cls-1" d="M62.15,33.19h0v0Z" transform="translate(-2.93 -1.41)"/><path class="cls-1" d="M52.31,24.62a1.49,1.49,0,0,0,.18-0.18A1,1,0,0,0,52.31,24.62Z" transform="translate(-2.93 -1.41)"/><path class="cls-1" d="M51.26,21.42l0,0.11A0.15,0.15,0,0,0,51.26,21.42Z" transform="translate(-2.93 -1.41)"/><path class="cls-1" d="M53.94,25.55c0,0.06-.06.12,0,0.12l0-.06C53.94,25.64,53.9,25.64,53.94,25.55Z" transform="translate(-2.93 -1.41)"/><path class="cls-1" d="M55,26.93l0.07-.1-0.06,0v0.12Z" transform="translate(-2.93 -1.41)"/><path class="cls-1" d="M84.61,38.18a4.46,4.46,0,0,1,0,.51C84.65,38.29,84.89,38.17,84.61,38.18Z" transform="translate(-2.93 -1.41)"/><path class="cls-1" d="M48.77,3.7a0.51,0.51,0,0,1,.25,0l0-.05A0.87,0.87,0,0,0,48.77,3.7Z" transform="translate(-2.93 -1.41)"/><path class="cls-1" d="M57.54,23l0.09,0.25A0.4,0.4,0,0,0,57.54,23Z" transform="translate(-2.93 -1.41)"/><path class="cls-1" d="M73.49,35.64l0.08,0S73.53,35.59,73.49,35.64Z" transform="translate(-2.93 -1.41)"/><path class="cls-1" d="M58.14,23.73a1.19,1.19,0,0,0-.22.35L58.05,24Z" transform="translate(-2.93 -1.41)"/><path class="cls-1" d="M84.63,38.69h0Z" transform="translate(-2.93 -1.41)"/><path class="cls-1" d="M86.39,37.49c-0.24,0-.16.72-0.23,1.14-0.3.19-.1-0.55-0.17-0.93a3.94,3.94,0,0,1-.51.81,0.82,0.82,0,0,1,0-.32c-0.24.57-.56,0-0.86,0.69a1,1,0,0,1,0-.19,8.49,8.49,0,0,1-.06,1c-0.11,0-.25.44-0.25,0a0.45,0.45,0,0,0,.14-0.32l-0.14.2c0-.7.18-0.22,0.23-0.73-0.24.2-.57,0.75-0.72,0.54,0-.68.43-0.19,0.26-0.81l0.24,0.28c-0.09-1.08.15,0.09,0.09-1.07-0.32-.23-0.42.32-0.74,0.07-0.12.36,0,.56-0.16,0.92-0.58.6-.17-1.75-0.64-0.9-0.15.44-.31,1.28-0.51,0.79l0.2-.75c-0.32-.12-0.35,1.07-0.63.51a3.44,3.44,0,0,1,.27-0.31c-0.13-.63-0.23.41-0.4,0.38l0.07-.68c-0.37.05-.84,0.45-1.26,0.5a1.15,1.15,0,0,0,.11-0.61,1.29,1.29,0,0,1-1.4-.78L79,37.42A0.5,0.5,0,0,1,79.08,37c-0.13-.26-0.09.36-0.23,0.56-0.11,0-.06-0.36,0-0.52-0.43.41-1.18,0.81-1.36,0.12l0.11-.15c-0.2-.3-0.62,1.09-0.72.5L77,37.47c-0.49-.42-1.28-0.1-1.44-1.08-0.35.78-.43-0.53-0.85,0.58a3.44,3.44,0,0,0-.28-1.36,8.14,8.14,0,0,0-.61.68L74,35.71l-0.42.53,0.16-.73-0.19.1a0.73,0.73,0,0,1-.05.47c-0.32.18-.37-0.6-0.25-0.9l-0.7.29a1.1,1.1,0,0,1,.35-0.39c-0.51.48,0.2-.62-0.26-0.18a1.94,1.94,0,0,1-.21.45,0.4,0.4,0,0,0-.51-0.46l0.21-.37a6,6,0,0,0-1.23-.36,1.19,1.19,0,0,1-.44.9l0.23-.61a2.12,2.12,0,0,1-.35.65,1.17,1.17,0,0,1,.4-0.87l-0.28.12a5.26,5.26,0,0,1,.28-0.47c-0.25.33,0-.73-0.44-0.15l0.08-.18c-0.4-.18-0.67-0.1-1-0.24a2.17,2.17,0,0,1-.65.66A1.77,1.77,0,0,0,68.23,33a1.78,1.78,0,0,0-.55.62c0.24-.45-0.06-0.57.27-0.8a1.91,1.91,0,0,0-1.12-.05,1,1,0,0,1-.18.45c-0.12,0-.06-0.3.09-0.5l0,0c-0.89.33-.23-2-1.18-1.31l0.05,0-0.7.2c-0.12-.19.33-0.24,0.38-0.59-0.91.43-.55-0.54-1.2-0.34C64.82,29.24,63.21,30,63.5,29l-0.21.29c-0.31.2,0-.24,0-0.35a1.27,1.27,0,0,1-.29.42c-1-.22-1.06-1.66-1.5-2.51-0.17-.3-1.44,1.17-1.15.27l0.56-.38c-1.08.09-1-1-1.9-1.08a0.6,0.6,0,0,1,.33-0.15c0.27-.42-0.33-0.41-0.63-0.16a1.53,1.53,0,0,1,.36-0.43c0.12-.29-0.71.13-0.39-0.24a0.29,0.29,0,0,1,.19-0.07c-0.24.08-.24-0.36-0.61,0.06,0-.37-0.49-0.23-0.36-0.6-0.57.28,0-.53-0.75,0,0.73-.54.31-0.8-0.13-0.67a6.59,6.59,0,0,1,.48-0.46c-0.12-.14-0.36-0.17-0.72.13,0.68-.9-1.1-0.06-0.07-1A5.5,5.5,0,0,1,55,21.33c0.77-.47.39,0.41,1.17-0.13-0.58-.17-1.37,0-1.43-0.52a0.7,0.7,0,0,1,.52-0.19c-0.56-.21-0.39-0.82-1-0.93a0.53,0.53,0,0,1,.26,0c-0.07-.06,0-0.23-0.34,0H54.3a4,4,0,0,1-1.54.46c1.09-.44.06-0.52,1.47-1a1,1,0,0,0-.53.16,0.57,0.57,0,0,1,.47-0.28c-0.33-.16-0.67.14-0.78-0.1a4.34,4.34,0,0,1,.49-0.16c-0.4.06-.81,0.11-0.77-0.17,0.11,0,.24-0.14.27-0.07-0.23-.32-1.24-0.14-1.09-0.7,0.83-.25.2-0.26,0.86-0.6l-0.3-.12-0.29.24c-0.07-.19-0.64-0.13-0.49-0.39h0.34l-0.29-.29L52,16.77c-0.44,0-.85.41-0.78,0.07a1,1,0,0,1,.28-0.47h0c-0.26,0-.53,0-0.43-0.21s0.77-.29.91-0.38c-0.62.15-.34-0.38-1-0.25a2.47,2.47,0,0,0,.59-0.21l-0.5.11a0.78,0.78,0,0,1,.48-0.29c0-.3-0.85.44-0.59,0a0.91,0.91,0,0,1,.21,0c0.07-.4-0.54-0.5-0.42-0.89,0.67-.35.27,0.19,0.83-0.13-0.3-.36-1.16-0.58-1.14-1.05l-0.05.1c-1,.28.39-0.48-0.15-0.53a1.5,1.5,0,0,0,.47-0.09c0.07-.33-0.44-0.5-0.88-0.85l0.28,0a1.48,1.48,0,0,0,.07-0.7,1,1,0,0,0-.63.07c1.33-1-1.09-.89,0-1.72a0.23,0.23,0,0,0,.26,0L49.45,9a1.73,1.73,0,0,0-.59.29,0.58,0.58,0,0,1-.54-0.18,1.2,1.2,0,0,0,1-.3c-0.13,0-.29,0-0.43.09,0.76-.41-0.92.16-0.44-0.28l0.24,0c-0.15-.09-0.48-0.14-0.44-0.28a2.1,2.1,0,0,1,.7,0c-0.07-.17-1.06-0.16-0.57-0.42,0.16,0,.19.16,0.35,0.2,0.58-.3.42-0.29,0.49-0.44v0l0.22-.35-0.15.11c-1.42,0-.33-0.41-1.28-0.56A1.57,1.57,0,0,0,49,6.72a1,1,0,0,1,.49-0.25c-0.51-.06.34-0.29-0.4-0.38a0.73,0.73,0,0,1,.48-0.2C49.44,5.74,49.29,6,49,6c-0.71-.19.71-0.78-0.25-1.06-0.42-.31-1.08-0.3-1.44-0.6a1,1,0,0,1,.72,0c0.27-.21.2-0.34,0-0.49a1.19,1.19,0,0,0,.53-0.1c-0.06-.13-0.72,0-0.45-0.23a6.5,6.5,0,0,1,.79.07c-0.2-.14-0.57-0.27-0.76-0.42a1.55,1.55,0,0,1,.75.1A1.11,1.11,0,0,0,48,2.8l-0.18.13a0.9,0.9,0,0,1,.56,0C48.82,3,48.21,3.16,48,3.18l-0.13-.11c-1.13.21,0.22,0.47,0.18,0.71l-0.84,0,0.71,0.18a1.24,1.24,0,0,1-.8,0c-0.39.22,0.31,0.13-.13,0.32a0.2,0.2,0,0,1-.14,0l0.26,0.15c-0.18,0-.58.09-0.47,0-0.45.37,0.67,0.43,0.06,0.62L46.66,5c0.34,0.4.61,0,1.36,0.2l-1.46.41,0.61,0a0.26,0.26,0,0,1-.29.16,2.17,2.17,0,0,0,.66,0C47,6,47.88,6.29,46.93,6.49c0.47,0,.32-0.26.68-0.08-1,.23.22,0.23-0.22,0.5-0.54,0-.29-0.2-0.73.07,0.92,0-.13.41,0.07,0.55,0.71-.12.37,0.3,0.66,0.53a2.06,2.06,0,0,0-.49.91L46.76,9a0.66,0.66,0,0,1,.84.35,1.56,1.56,0,0,1-.83,0l0,0.18a0.63,0.63,0,0,1,.48.12l-0.55.08c0.09,0.24.75,0.34,0.46,0.73,0.5-.11,1.33-0.58,1.73-0.35a2.25,2.25,0,0,1-.85.15s0.25,0,.15.13H47.77c-0.16.19,0.39,0,.38,0.1-0.38.1-.25,0.15-0.56,0.21,0,0,.13-0.14,0-0.14a0.93,0.93,0,0,1-.5.48A0.87,0.87,0,0,1,47.65,11c0.1,0.23-.44.2-0.59,0.4,0.28,0,.05.21,0.62,0.06a0.8,0.8,0,0,1-.39.23c0.29,0.05.24,0.56,0.8,0.24l0,0h0c0.68,0.23-.09.93,0.29,1.24l-0.19.06a1.4,1.4,0,0,0,.76.51,0.8,0.8,0,0,1-.52.33c0.2,0.13.42,0.08,0.2,0.44-0.39-.07-0.27.16-0.3-0.1-0.08.29-.37,0.46,0.24,0.52-0.51.09-.53,0.39-0.35,0.45L48.55,15a0.4,0.4,0,0,1,.12.35L48,15.56c-0.57.78,1.62,0.35,0.5,1.22,0.48-.05.2-0.38,0.75-0.48a5.28,5.28,0,0,1-.76.91c-0.21.44,1-.11,0.92,0.3a1.49,1.49,0,0,1,1.07-.29,1.31,1.31,0,0,1-1,.61s0-.1.09-0.13a0.37,0.37,0,0,0-.44.11l0.23-.07c-0.17.2,0,.49-0.4,0.58a0.34,0.34,0,0,0,.44-0.26c-0.19.42,0.18,0.43,0.1,0.82a0.65,0.65,0,0,1,.35-0.22c-0.08.54,0.49,0,.72,0.21-0.25.31-.8,0.32-0.39,0.47a0.89,0.89,0,0,1-.75.33c0.54,0.05,0,.61,0,0.8l-0.24,0a0.25,0.25,0,0,1,.21.17l0.38-.3a0.28,0.28,0,0,1-.18.28,6.46,6.46,0,0,1,1.13-.46c-0.16.22,0.39,0.19-.15,0.53,0-.43-0.54.34-0.77,0.1,0.09,0,.13.09,0.09,0.21a0.22,0.22,0,0,1-.16,0c-0.33.59,0.7-.19,0.86,0.14-0.33.13-.55,0.4-0.45,0.42a1,1,0,0,1,.79-0.36c-0.12.34,0.31,0.12,0.34,0.24l0-.18a0.44,0.44,0,0,1,.53.07c-0.23.15-.24,0-0.32,0.08,0.63-.16-0.35.67,0.14,0.68-0.15.22-.57,0.35-0.65,0.52,0.54,0-.26.52,0.22,0.58A0.83,0.83,0,0,1,52,22.83l-0.54-.25,0.75-.09a1.78,1.78,0,0,1-.39-0.23,0.73,0.73,0,0,0,.6-0.29c-0.51.54,0.56,0.12,0.26,0.57l-1,.62c-0.27.59,0.86,0.2,0.86,0.74l0.09-.23c0.43-.21.21,0.2,0.45,0.21a2,2,0,0,0-.57.56c0.24-.17.17,0.29,0.84-0.12L53,24.79c0,0.43,1.15-.3,1.24.06a2.34,2.34,0,0,1-.93.45c0.06,0.1.07,0.23,0.29,0.07-0.16.2,0.63-.06,0.39,0.25a0.8,0.8,0,0,1,.56-0.18,0.8,0.8,0,0,1-.16.12A1.12,1.12,0,0,0,55,25.2c-0.76,1,.68.73,0,1.63a3.75,3.75,0,0,1,.73.43c-0.1.07-.15,0.13-0.15,0.07-0.07.48,1-.59,0.92-0.05-0.36.56-.39,0.08-0.5,0.33-0.95.89,0.42,0.21,0,.9H56c-0.2.44,0.67,0,.81,0.31a0.84,0.84,0,0,0-.15.13,1.91,1.91,0,0,1,1.39-.08,1.47,1.47,0,0,0-.62.49,3.18,3.18,0,0,1,.86-0.52,3.16,3.16,0,0,1-.55,1l-0.2-.15c-0.42.59,0.25,0.21,0.26,0.39l-0.23.21c0.35,0.2.9-.36,1.16,0l0.13-.2c0.7-.41-0.17.44,0.39,0.18l-0.49.62a4.35,4.35,0,0,1,1.18-.13,4,4,0,0,1-1.3.45,0.54,0.54,0,0,0,.72.07c-0.09,0-.28.11-0.24,0,0.55-.33.92-0.4,1.12-0.19-1.07,1.12.32,0.78-.29,1.81,0.77-.1.66,0.84,1.2,1.16,0.56-1.08.16,0.09,0.88-.9,0.16,0,.19.07,0.15,0.14L62,34a1,1,0,0,1-.42.36c0.19,0.27-.21.5-0.24,0.89,0.23-.38.46-0.43,0.51-0.2l0.13-.6c0.74-.28-0.29,1,0.46.77l-0.34.23c0.32-.06.7,0.49,1.44-0.21a0.78,0.78,0,0,1-.32.46c0.38,0.43,1.57-.2,1.59.54l-0.19.23c0.13,0,.44-0.39.4-0.07a0.57,0.57,0,0,0-.16.27c0.1-.06.5-0.32,0.53-0.1l-0.27.23c0.26,0.6,1.12-.31,1.6-0.28A1.36,1.36,0,0,0,66.65,38l-0.07.11c0.49,0.41,1.26-.13,1.92-0.21-0.1,1,.9.86,1.2,1.59a1.07,1.07,0,0,1,.42-0.66c0,0.22.57-.41,0.23,0.33l0,0c-0.22.78,0.12,0.69,0.31,0.78l0.44-1c-0.05,1.63,1.55,0,1.34,1.39,0.22-.2.37-0.14,0.58-0.34l-0.2.53a1.17,1.17,0,0,0,.94.41l-0.22.36c0.24,0.11.82-1.45,1.06-1.41l-0.19.83c0.43,0.12.66,1,1.3,0.37a0.66,0.66,0,0,1-.2.36c0.19,0.09.65,0.78,0.88-.37-0.19.73,0.43,0.18,0.75-.08l-0.17.53a1.7,1.7,0,0,1,.75-1c0,0.09,0,.45-0.1.29,0.15,0.34.29-.47,0.48-0.12l-0.18.32c0.21,0.1.24-.09,0.45-0.47,0.19-.18.39,0.24,0.31,0.74,0.1-.29.31-0.67,0.41-0.51a0.7,0.7,0,0,1-.13.35c0.3,0.44.69-.53,0.84,0.06a1,1,0,0,0,0,.33,1,1,0,0,1-.5-0.18A2.8,2.8,0,0,1,79,42.7c0.28-.34.78-1.1,1-0.82a1.34,1.34,0,0,1,0,.18l0,0.05c0,0.06.1,0,.17-0.05a0.37,0.37,0,0,0,.17.19c0,0.42.24,0.28,0.36,0.32a2.08,2.08,0,0,0,.16-0.92s0,0.06-.12.07a0.13,0.13,0,0,0-.06,0l0,0-0.31,0c0.15-.26.29-0.48,0.37-0.15L81,40.69c0,0.81.29,1.27,0.26,1.76a1.63,1.63,0,0,0,1.29-1.09c0.12-.12.08,0.32,0.1,0.49a0.59,0.59,0,0,0-.2.22c0.25-.24.64,0,0.78-0.74,0.22,0.37-.23.66,0.15,0.58l-0.08.22c0.61,1.24,1.35-1.76,2-.18a0.5,0.5,0,0,1-.07-0.27c0.87,0.72,1.89-.5,2.76.56,0.25,0.22.29-.25,0.45-0.61l0.05,0.6,0.27-.69C89.18,41,89.49,43,90,42l-0.07-.41c0.17,0.08.53-.25,0.52,0.21,0-.07,0-0.43.12-0.22l0,0.32,0.4-.56c0.34,0.21,0,1.26.51,1.29a1.84,1.84,0,0,0,.36-1.16,0.56,0.56,0,0,1-.23-0.5l0.15-.18a5.34,5.34,0,0,0-.43-2.51l-0.21.59L91,38.46l0.21,0c-0.15-.42-0.19,0-0.27.23a1.41,1.41,0,0,0-.13-0.49l-0.2.9a2,2,0,0,0-.1-0.92,4.4,4.4,0,0,1,0,1.09c-0.14-.42-0.12-0.76-0.25-0.39a0.9,0.9,0,0,1,0-.5,1.16,1.16,0,0,0-.38.63c-0.14-.52-0.43.14-0.44-0.74a1.48,1.48,0,0,1-.33.73c0.21-1.06-.44-0.06-0.38-1.19-0.16.95-.57,0.41-0.87,0.93,0-.07.05-0.23,0.08-0.18A1.28,1.28,0,0,1,87.64,38a3.7,3.7,0,0,1-.45,1.43,6.74,6.74,0,0,1,.12-1.64c0,0.64-.36.62-0.32,1.15A2.34,2.34,0,0,1,86.82,38c-0.07,1-.15.16-0.3,0.75-0.19-.49,0-0.92-0.26-0.63A0.87,0.87,0,0,1,86.39,37.49Zm-5.8,1h0.12Zm-0.48-.08a0.54,0.54,0,0,0,.2.06,0.49,0.49,0,0,1-.12.37A0.81,0.81,0,0,0,80.11,38.39Zm0.33,4c-0.1.06-.1-0.05-0.09-0.17a0.48,0.48,0,0,0,.15,0l0-.07A2.25,2.25,0,0,1,80.44,42.42Z" transform="translate(-2.93 -1.41)"/><path class="cls-1" d="M80.71,41.72a0.12,0.12,0,0,1,0,0l0-.13-0.06.17h0Z" transform="translate(-2.93 -1.41)"/><path class="cls-1" d="M48.08,11.91h0l0.07,0Z" transform="translate(-2.93 -1.41)"/><polygon class="cls-1" points="71.15 34.16 71.1 34.3 71.19 34.2 71.15 34.16"/><path class="cls-1" d="M49.27,8.77a0.47,0.47,0,0,0,.13-0.07Z" transform="translate(-2.93 -1.41)"/><path class="cls-1" d="M49.16,7.61l0.16-.2A0.72,0.72,0,0,0,49.16,7.61Z" transform="translate(-2.93 -1.41)"/><path class="cls-1" d="M49.28,6.69L49,6.72h0Z" transform="translate(-2.93 -1.41)"/><path class="cls-1" d="M54.5,19.51l0,0C54.67,19.54,54.61,19.52,54.5,19.51Z" transform="translate(-2.93 -1.41)"/><path class="cls-1" d="M51.47,16.37a1.59,1.59,0,0,1,.3,0C51.78,16.3,51.76,16.25,51.47,16.37Z" transform="translate(-2.93 -1.41)"/><path class="cls-1" d="M57.53,22.93h0l0,0v0Z" transform="translate(-2.93 -1.41)"/><path class="cls-1" d="M51.84,16.57c0.07-.11,0-0.16-0.07-0.18S51.74,16.55,51.84,16.57Z" transform="translate(-2.93 -1.41)"/><path class="cls-1" d="M49.07,2.89l0,0H49Z" transform="translate(-2.93 -1.41)"/><path class="cls-1" d="M49,2.85l-0.07,0S48.94,2.84,49,2.85Z" transform="translate(-2.93 -1.41)"/><path class="cls-1" d="M48.78,2.71L48.93,2.8S48.94,2.73,48.78,2.71Z" transform="translate(-2.93 -1.41)"/><path class="cls-1" d="M48.91,4.07h0Z" transform="translate(-2.93 -1.41)"/><path class="cls-1" d="M49,4.41c0-.09.41-0.26,0.27-0.36H49.12C49.42,4.08,48.66,4.37,49,4.41Z" transform="translate(-2.93 -1.41)"/><path class="cls-1" d="M46.71,6.25l0.12-.33C46.62,6,46.34,6.11,46.27,6,45.68,6.47,46.73,5.83,46.71,6.25Z" transform="translate(-2.93 -1.41)"/><path class="cls-1" d="M46.56,7.27c-0.13-.15-0.31.06-0.43,0.07A0.31,0.31,0,0,0,46.56,7.27Z" transform="translate(-2.93 -1.41)"/><path class="cls-1" d="M48.32,14.15l-0.49.15C47.95,14.4,48,14.23,48.32,14.15Z" transform="translate(-2.93 -1.41)"/><polygon class="cls-1" points="48.33 13.08 48.59 12.85 48.13 12.96 48.33 13.08"/><polygon class="cls-1" points="45.22 15.14 45.13 15.11 45.39 15.25 45.22 15.14"/><path class="cls-1" d="M54.43,27l0.47-.42C54.76,26.57,54.19,27,54.43,27Z" transform="translate(-2.93 -1.41)"/><path class="cls-1" d="M58.44,30.42c-0.18.27-.21,0.51,0.07,0.35A0.61,0.61,0,0,0,58.44,30.42Z" transform="translate(-2.93 -1.41)"/><polygon class="cls-1" points="68.09 38.4 67.91 38.55 68.16 38.47 68.09 38.4"/><path class="cls-1" d="M2.95,43.94c0,0.17,0,.56.09,0.49l0.08-.66Z" transform="translate(-2.93 -1.41)"/><path class="cls-1" d="M3.7,45.16a3,3,0,0,0,.2-1.49c-0.13.64-.16,0.37-0.3,1.13-0.11.08-.19-0.21-0.18-0.46,0,0.17-.17-0.15-0.23.27,0.14,0.51.33,0.53,0.52,0.11A1.28,1.28,0,0,1,3.7,45.16Z" transform="translate(-2.93 -1.41)"/><path class="cls-1" d="M14.6,46.08L14.53,46A0.14,0.14,0,0,0,14.6,46.08Z" transform="translate(-2.93 -1.41)"/><path class="cls-1" d="M21.37,46.26a0.15,0.15,0,0,0-.07.14A0.16,0.16,0,0,0,21.37,46.26Z" transform="translate(-2.93 -1.41)"/><path class="cls-1" d="M22.55,47l-0.07,0C22.51,47,22.54,47,22.55,47Z" transform="translate(-2.93 -1.41)"/><path class="cls-1" d="M14.6,46.08l0.18,0.2C14.8,46.07,14.69,46.13,14.6,46.08Z" transform="translate(-2.93 -1.41)"/><path class="cls-1" d="M5.19,43.56a0.42,0.42,0,0,0-.1.17l0.09-.07v-0.1Z" transform="translate(-2.93 -1.41)"/><path class="cls-1" d="M11.63,46.67H11.58l0,0.27Z" transform="translate(-2.93 -1.41)"/><path class="cls-1" d="M9.35,46.8A3.12,3.12,0,0,0,9.43,46a0.72,0.72,0,0,1-.11.39A3.52,3.52,0,0,0,9.35,46.8Z" transform="translate(-2.93 -1.41)"/><path class="cls-1" d="M5.71,45.84l-0.06.08Z" transform="translate(-2.93 -1.41)"/><path class="cls-1" d="M13.27,46.76a1.47,1.47,0,0,0,0,.2A1,1,0,0,0,13.27,46.76Z" transform="translate(-2.93 -1.41)"/><path class="cls-1" d="M76.53,37.75v0.1C76.55,37.79,76.55,37.75,76.53,37.75Z" transform="translate(-2.93 -1.41)"/><polygon class="cls-1" points="76.59 38.74 76.56 38.78 76.6 39.09 76.59 38.74"/><path class="cls-1" d="M24.69,47.6h0C24.63,47.65,24.66,47.64,24.69,47.6Z" transform="translate(-2.93 -1.41)"/><path class="cls-1" d="M44.08,46.1c-0.26-.48.31-0.67-0.06-1.2A2,2,0,0,0,44.08,46.1Z" transform="translate(-2.93 -1.41)"/><path class="cls-1" d="M5.25,43.64H5.34A0.08,0.08,0,0,0,5.25,43.64Z" transform="translate(-2.93 -1.41)"/><path class="cls-1" d="M44,44.89h0l0-.05Z" transform="translate(-2.93 -1.41)"/><path class="cls-1" d="M29.56,47a1.35,1.35,0,0,0-.06-0.24A0.9,0.9,0,0,0,29.56,47Z" transform="translate(-2.93 -1.41)"/><path class="cls-1" d="M25.89,46.41L26,46.48A0.16,0.16,0,0,0,25.89,46.41Z" transform="translate(-2.93 -1.41)"/><path class="cls-1" d="M31.4,46.16c0.05,0,.07.12,0.13,0l0-.07C31.49,46.21,31.46,46.25,31.4,46.16Z" transform="translate(-2.93 -1.41)"/><path class="cls-1" d="M33.36,46.06l0-.11-0.06,0Z" transform="translate(-2.93 -1.41)"/><path class="cls-1" d="M70.69,38.77a3.65,3.65,0,0,1,.15.49C70.77,38.87,71,38.69,70.69,38.77Z" transform="translate(-2.93 -1.41)"/><path class="cls-1" d="M5.19,43.88a0.43,0.43,0,0,1,.06-0.24l-0.06,0A0.72,0.72,0,0,0,5.19,43.88Z" transform="translate(-2.93 -1.41)"/><path class="cls-1" d="M31.26,41.73l0.31,0.07A0.59,0.59,0,0,0,31.26,41.73Z" transform="translate(-2.93 -1.41)"/><path class="cls-1" d="M56.81,40.38l0.06-.07S56.83,40.31,56.81,40.38Z" transform="translate(-2.93 -1.41)"/><path class="cls-1" d="M32.48,41.67a1.06,1.06,0,0,0,.19.38,0.81,0.81,0,0,0,0-.15Z" transform="translate(-2.93 -1.41)"/><path class="cls-1" d="M70.85,39.27h0Z" transform="translate(-2.93 -1.41)"/><path class="cls-1" d="M72.7,37.69c-0.29,0,0,.73-0.06,1.16-0.32.25-.23-0.52-0.4-0.88a4.34,4.34,0,0,1-.44.91,0.68,0.68,0,0,1,0-.32c-0.16.61-.68,0.11-0.86,0.88a0.89,0.89,0,0,1-.06-0.18,7,7,0,0,1,.17,1c-0.13,0-.19.49-0.3,0a0.41,0.41,0,0,0,.08-0.34l-0.11.22c-0.21-.67.16-0.26,0.1-0.77-0.24.26-.48,0.86-0.71,0.7-0.12-.67.45-0.28,0.11-0.85l0.35,0.22c-0.37-1,.2.05-0.16-1.06-0.44-.14-0.43.4-0.87,0.25,0,0.39.1,0.55,0,.94-0.51.75-.67-1.64-1-0.69-0.06.46,0,1.32-.37,0.91l0-.78c-0.41,0-.1,1.12-0.59.66a3.18,3.18,0,0,1,.22-0.37c-0.35-.57-0.14.46-0.36,0.48l-0.12-.67c-0.42.16-.84,0.7-1.3,0.88A1,1,0,0,0,66,39.39a1.86,1.86,0,0,1-1.92-.27l-0.16.61a0.42,0.42,0,0,1-.08-0.37c-0.25-.2,0,0.37-0.05.61-0.12.05-.21-0.32-0.14-0.5-0.35.54-1,1.19-1.51,0.61l0.06-.18c-0.35-.2-0.24,1.24-0.61.72l0-.11c-0.74-.18-1.47.44-2.11-0.39,0,0.85-.74-0.3-0.67.87a3,3,0,0,0-1-1.1,6.71,6.71,0,0,0-.33.9l-0.07-.61-0.19.67L57,40.13l-0.16.17a0.63,0.63,0,0,1,.18.44c-0.25.3-.72-0.36-0.76-0.68l-0.61.58a1,1,0,0,1,.16-0.51c-0.29.66-.13-0.64-0.39,0a1.58,1.58,0,0,1,0,.49,0.52,0.52,0,0,0-.81-0.14V40a9.14,9.14,0,0,0-1.55.34,1,1,0,0,1,.08,1l-0.12-.64a1.76,1.76,0,0,1,0,.74A1,1,0,0,1,53,40.52l-0.23.25a4.18,4.18,0,0,1,0-.55c-0.07.41-.49-0.61-0.57,0.1l0-.19a9.35,9.35,0,0,0-1.22.36,2,2,0,0,1-.24.92,2.24,2.24,0,0,0-1.13-.48,1.47,1.47,0,0,0-.14.82c-0.06-.51-0.45-0.43-0.28-0.81a2.26,2.26,0,0,0-1.16.62,0.85,0.85,0,0,1,.14.47c-0.1.09-.27-0.19-0.27-0.44l0-.06c-0.61.82-1.67-1.37-2.12-.26l0-.05-0.51.6c-0.26-.07.12-0.4-0.09-0.7-0.53.9-1-.05-1.41,0.55-0.49-1.48-1.35.21-1.93-.72l0.05,0.35c-0.11.36-.18-0.19-0.28-0.27a1,1,0,0,1,.1.51c-1.1.51-2.37-.36-3.54-0.61-0.43-.07-0.12,1.85-0.71,1l0.11-.67c-0.81.84-1.75,0.08-2.55,0.8a0.53,0.53,0,0,1,.11-0.36c-0.2-.47-0.65,0-0.64.4a1.3,1.3,0,0,1-.14-0.55c-0.19-.27-0.41.64-0.53,0.16a0.25,0.25,0,0,1,.07-0.2c-0.1.24-.54,0-0.4,0.52-0.33-.25-0.59.28-0.86,0-0.13.63-.55-0.27-0.56,0.61,0-.9-0.59-0.7-0.77-0.27a5.61,5.61,0,0,1-.13-0.66c-0.23,0-.43.2-0.36,0.66-0.47-1.06-.8.91-1.1-0.46A7.42,7.42,0,0,1,27.9,43c0-.9.67-0.12,0.6-1.07-0.56.4-.86,1.19-1.44,1-0.15-.12.07-0.39,0.11-0.55-0.56.4-1.11,0-1.61,0.48a0.46,0.46,0,0,1,.1-0.25c-0.1,0-.24-0.12-0.21.29l0.09-.12a3.52,3.52,0,0,1-.36,1.57c0.12-1.18-.52-0.27-0.3-1.77a0.81,0.81,0,0,0-.11.55,0.49,0.49,0,0,1-.05-0.55c-0.35.24-.21,0.67-0.54,0.67a3.54,3.54,0,0,1,.08-0.51c-0.15.39-.3,0.79-0.59,0.63,0-.12,0-0.27.06-0.27-0.47.08-.77,1.06-1.31,0.71,0.12-.87-0.19-0.28-0.24-1l-0.27.23L22,43.41c-0.25,0-.45.55-0.66,0.31l0.17-.31-0.46.16,0.27,0.27c-0.24.39,0.06,0.94-.28,0.75a1,1,0,0,1-.39-0.44h0c-0.11.24-.23,0.5-0.42,0.32s0-.83,0-1c-0.1.63-.57,0.19-0.7,0.86a2.09,2.09,0,0,0,0-.63l-0.09.51a0.68,0.68,0,0,1-.13-0.55c-0.35-.08.14,0.94-0.28,0.55a0.82,0.82,0,0,1,.08-0.2c-0.41-.2-0.78.34-1.16,0.1-0.13-.75.32-0.19,0.18-0.82-0.54.15-1.1,0.93-1.63,0.77l0.1,0.08c0,1.06-.4-0.52-0.66,0A1.27,1.27,0,0,0,16,43.67c-0.36-.16-0.73.28-1.26,0.62L14.84,44a2,2,0,0,0-.79-0.25,0.82,0.82,0,0,0-.11.63c-0.73-1.54-1.33.86-2-.43,0.07,0,.17-0.24.11-0.24L11.56,44a1.55,1.55,0,0,0,.19.64,0.58,0.58,0,0,1-.34.49,1,1,0,0,0-.12-1c0,0.14,0,.3,0,0.44-0.29-.82,0,0.93-0.42.38l0-.24a0.72,0.72,0,0,1-.42.38,1.81,1.81,0,0,1,.15-0.69c-0.21,0-.41,1-0.61.49,0.09-.15.22-0.15,0.31-0.3-0.22-.62-0.24-0.46-0.4-0.56h0l-0.37-.28,0.09,0.17c-0.25,1.4-.55.26-0.9,1.18,0.34-.87.05-0.5,0.07-1.11a0.86,0.86,0,0,1-.2-0.53c-0.17.49-.29-0.38-0.52,0.33A0.65,0.65,0,0,1,8,43.29c-0.22.16,0.06,0.34,0,.58-0.34.67-.81-0.8-1.3,0.11-0.42.38-.5,1-0.89,1.37a0.91,0.91,0,0,1,.11-0.71c-0.22-.29-0.38-0.23-0.58,0a1,1,0,0,0-.07-0.53c-0.16.05-.11,0.71-0.32,0.42a5.25,5.25,0,0,1,.16-0.78c-0.19.18-.38,0.54-0.58,0.72a1.33,1.33,0,0,1,.19-0.74,1.11,1.11,0,0,0-.65.85L4.2,44.76a0.77,0.77,0,0,1,0-.56c0.19-.42.28,0.19,0.29,0.38l-0.14.13c0.15,1.14.57-.18,0.85-0.12l-0.12.83,0.29-.69a1.08,1.08,0,0,1,0,.81c0.21,0.41.18-.3,0.36,0.16a0.18,0.18,0,0,1,0,.14l0.2-.25c0,0.18,0,.59-0.09.47,0.36,0.48.58-.63,0.71,0l0,0.05c0.5-.28,0-0.61.41-1.33l0.26,1.5,0-.61a0.25,0.25,0,0,1,.14.31,1.92,1.92,0,0,0,.07-0.66c0.25,0.56.68-.27,0.74,0.71,0.08-.46-0.24-0.36,0-0.68,0.08,1,.3-0.18.53,0.3-0.06.54-.28,0.26-0.05,0.74,0.13-.91.44,0.2,0.63,0,0-.73.41-0.31,0.73-0.55a2.34,2.34,0,0,0,.91.65v0.12a0.67,0.67,0,0,1,.58-0.76,1.4,1.4,0,0,1-.16.81h0.21a0.6,0.6,0,0,1,.24-0.45l0,0.55c0.28,0,.55-0.65.92-0.29,0-.51-0.31-1.42.06-1.77a2,2,0,0,1-.06.87s0.11-.23.18-0.12l-0.14.47c0.17,0.2.08-.39,0.21-0.35,0,0.39.1,0.28,0.09,0.59,0,0-.12-0.16-0.16,0a0.88,0.88,0,0,1,.4.6,0.78,0.78,0,0,1,.1-0.58c0.28,0,.1.47,0.27,0.67,0.06-.28.25,0,0.24-0.59a0.73,0.73,0,0,1,.14.44c0.14-.26.68-0.09,0.5-0.71l0,0,0,0h0c0.46-.59,1,0.31,1.46,0v0.2a1.61,1.61,0,0,0,.81-0.58,0.72,0.72,0,0,1,.18.59c0.21-.15.23-0.38,0.55-0.06-0.21.35,0.08,0.3-.22,0.26,0.28,0.16.36,0.48,0.64-.07-0.09.51,0.23,0.63,0.36,0.48l-0.21-.36a0.51,0.51,0,0,1,.41,0l-0.05.67c0.6,0.79,1-1.41,1.47-.06,0.14-.47-0.32-0.32-0.2-0.87a4.47,4.47,0,0,1,.65,1c0.37,0.36.31-1,.69-0.74a1.32,1.32,0,0,1,.15-1.1,1.17,1.17,0,0,1,.2,1.18c-0.06,0-.1-0.05-0.1-0.13a0.34,0.34,0,0,0-.08.45l0-.24c0.14,0.24.5,0.2,0.43,0.59a0.31,0.31,0,0,0-.08-0.51c0.35,0.33.53,0,.88,0.21a0.58,0.58,0,0,1-.07-0.41c0.52,0.28.21-.46,0.55-0.57,0.21,0.35,0,.87.3,0.55a0.81,0.81,0,0,1,0,.82c0.3-.47.6,0.28,0.79,0.36l-0.16.2a0.29,0.29,0,0,1,.26-0.12L24,47.27a0.28,0.28,0,0,1,.19.28,5.68,5.68,0,0,1,.08-1.22c0.14,0.24.39-.27,0.46,0.35-0.42-.2.07,0.63-0.27,0.75a0.16,0.16,0,0,1,.25,0,0.21,0.21,0,0,1,0,.17c0.42,0.55.15-.72,0.56-0.72,0,0.36.12,0.67,0.18,0.59a0.87,0.87,0,0,1,0-.87c0.27,0.27.28-.22,0.41-0.19l-0.16-.12a0.45,0.45,0,0,1,.35-0.44c0,0.28-.16.2-0.09,0.32,0.18-.63.48,0.63,0.75,0.19,0.14,0.23,0,.67.16,0.82,0.3-.47.36,0.47,0.68,0.08a0.77,0.77,0,0,1,.09-0.83l-0.53.36,0.32-.71a2.15,2.15,0,0,1-.44.24,0.66,0.66,0,0,0,0-.67c0.26,0.71.43-.43,0.71,0l0,1.18c0.42,0.51.67-.64,1.19-0.36l-0.17-.2c0-.47.31-0.08,0.47-0.28a1.87,1.87,0,0,0,.19.78c0-.29.37,0,0.38-0.78l0.25,0.51c0.42,0.19.41-1.15,0.81-1a2.17,2.17,0,0,1-.15,1c0.13,0,.25.06,0.24-0.21,0.09,0.24.34-.55,0.48-0.18a0.74,0.74,0,0,1,.19-0.56,0.7,0.7,0,0,1,0,.19,1,1,0,0,0,.07-0.71c0.47,1.21,1.13-.15,1.54.89a3.28,3.28,0,0,1,.88-0.34c0,0.12,0,.2,0,0.16,0.38,0.35.16-1.14,0.59-.76,0.25,0.63-.2.36-0.05,0.59,0.13,1.29.48-.2,0.8,0.54l-0.06.08c0.24,0.43.49-.52,0.83-0.45a0.75,0.75,0,0,0,0,.2,1.85,1.85,0,0,1,.95-1.12,1.29,1.29,0,0,0,0,.79c0.14-.08-0.09-0.83.19-1a2.84,2.84,0,0,1,.4,1.05l-0.28,0c0.19,0.7.36,0,.52,0.07v0.31c0.42-.13.38-0.91,0.84-0.89L38.8,45c0.2-.79.24,0.42,0.45-0.17l0.13,0.78a4.35,4.35,0,0,1,.82-1,4.2,4.2,0,0,1-.65,1.28,0.62,0.62,0,0,0,.62-0.49C40.1,45.52,40,45.71,40,45.6a1,1,0,0,1,.73-1c0,1.53.88,0.33,1.2,1.49,0.54-.61,1.17.16,1.84,0-0.33-1.17.19,0,.06-1.26,0.15-.09.21-0.07,0.23,0l0.53,0.69a0.92,0.92,0,0,1-.09.55c0.35,0.07.18,0.51,0.44,0.81-0.08-.43.07-0.63,0.28-0.48l-0.32-.54c0.43-.68.49,1,0.93,0.31l-0.12.4c0.23-.25.92-0.06,1.09-1.06a0.71,0.71,0,0,1,0,.56c0.61,0.1,1.24-1.14,1.75-.58l0,0.3c0.1-.1.15-0.58,0.31-0.29a0.52,0.52,0,0,0,0,.31c0.05-.11.25-0.55,0.41-0.39l-0.1.35c0.61,0.34.82-.89,1.29-1.14A1.34,1.34,0,0,0,51.26,46v0.12c0.69,0,1.09-.83,1.68-1.23,0.47,0.92,1.35.28,2,.75A1,1,0,0,1,55,44.82c0.16,0.16.35-.65,0.4,0.16H55.37c0.18,0.78.47,0.54,0.7,0.54L56,44.45c0.76,1.47,1.55-.71,2,0.62,0.12-.28.31-0.29,0.43-0.57l0,0.56a1.55,1.55,0,0,0,1.13,0l-0.06.41c0.29,0,.2-1.66.46-1.72l0.17,0.83c0.5-.07,1.08.62,1.49-0.19a0.63,0.63,0,0,1-.06.41c0.24,0,1,.47.76-0.67,0.09,0.75.52,0,.76-0.34l0,0.56a1.59,1.59,0,0,1,.43-1.16c0.08,0.06.11,0.44,0,.31,0.28,0.26.14-.55,0.47-0.28L64,43.55c0.26,0,.22-0.17.32-0.6,0.14-.24.5,0.08,0.6,0.58,0-.31.1-0.73,0.26-0.61a0.63,0.63,0,0,1,0,.37c0.47,0.33.57-.72,0.93-0.21a0.93,0.93,0,0,0,.09.32,1.24,1.24,0,0,1-.6,0,2.52,2.52,0,0,1,.2,1.3c0.18-.41.46-1.29,0.76-1.08a1.2,1.2,0,0,1,.06.17l0,0.06c0.07,0,.12,0,0.16-0.1a0.41,0.41,0,0,0,.24.13c0.08,0.42.34,0.19,0.48,0.19a1.86,1.86,0,0,0-.11-0.93s0,0.07-.11.1a0.14,0.14,0,0,0-.05.06V43.26l-0.34.08c0.08-.3.16-0.55,0.35-0.26l0.09-.92c0.28,0.76.69,1.14,0.8,1.61,0.38-.36,1-0.32,1.11-1.4,0.1-.15.17,0.28,0.24,0.44a0.6,0.6,0,0,0-.16.26c0.21-.3.7-0.19,0.66-0.93,0.34,0.29-.09.69,0.31,0.53l0,0.23c1,1.07,1.09-2,2.18-.64A0.46,0.46,0,0,1,72.26,42c1.11,0.54,2-.89,3.19,0,0.32,0.17.29-.3,0.41-0.68L76,42l0.21-.73c0.36-.56.93,1.37,1.35,0.34l-0.12-.39c0.2,0,.58-0.32.61,0.15,0-.08,0-0.43.11-0.23l0,0.31,0.4-.6C79,41,78.72,42.05,79.27,42a1.8,1.8,0,0,0,.34-1.19,0.54,0.54,0,0,1-.28-0.48l0.16-.19a4.32,4.32,0,0,0-.62-2.47l-0.23.61-0.16-.43,0.26-.06c-0.21-.4-0.25,0-0.32.25a1.16,1.16,0,0,0-.2-0.48L78,38.52a1.59,1.59,0,0,0-.19-0.91,3.69,3.69,0,0,1,0,1.09c-0.21-.4-0.21-0.75-0.34-0.36a0.74,0.74,0,0,1,0-.5,1.13,1.13,0,0,0-.41.68c-0.22-.5-0.51.2-0.61-0.67a1.41,1.41,0,0,1-.32.78c0.12-1.08-.54,0-0.62-1.12-0.07,1-.64.51-0.92,1.08,0-.08,0-0.23.06-0.19a1.29,1.29,0,0,1-.44-0.49,3.4,3.4,0,0,1-.3,1.5c-0.33-.72,0-0.93-0.14-1.64,0.09,0.63-.33.68-0.18,1.2a2,2,0,0,1-.36-0.84c0.09,1-.15.19-0.22,0.8-0.32-.45-0.18-0.9-0.43-0.57A0.73,0.73,0,0,1,72.7,37.69Zm-6.63,2.51h0l0.14,0Zm-0.58.07a0.77,0.77,0,0,0,.25,0,0.42,0.42,0,0,1,0,.39A0.73,0.73,0,0,0,65.49,40.27ZM67.16,44c-0.08.09-.13,0-0.15-0.13a0.57,0.57,0,0,0,.15-0.09V43.71A2.06,2.06,0,0,1,67.16,44Z" transform="translate(-2.93 -1.41)"/><path class="cls-1" d="M67.24,43.25a0.13,0.13,0,0,1,0,0l-0.07-.12v0.18h0Z" transform="translate(-2.93 -1.41)"/><path class="cls-1" d="M14.52,46h0a0.29,0.29,0,0,1,0-.08V46Z" transform="translate(-2.93 -1.41)"/><polygon class="cls-1" points="54.5 38.63 54.52 38.77 54.55 38.65 54.5 38.63"/><path class="cls-1" d="M11.29,44.12a0.4,0.4,0,0,0,0-.14A0.53,0.53,0,0,0,11.29,44.12Z" transform="translate(-2.93 -1.41)"/><path class="cls-1" d="M9.91,44l-0.2-.2A0.79,0.79,0,0,0,9.91,44Z" transform="translate(-2.93 -1.41)"/><path class="cls-1" d="M8.84,43.74c0,0.1,0,.17,0,0.24h0Z" transform="translate(-2.93 -1.41)"/><path class="cls-1" d="M25.67,42.65l0,0C25.8,42.51,25.73,42.56,25.67,42.65Z" transform="translate(-2.93 -1.41)"/><path class="cls-1" d="M20.7,44.15a1.46,1.46,0,0,1,.15-0.27C20.76,43.84,20.69,43.83,20.7,44.15Z" transform="translate(-2.93 -1.41)"/><path class="cls-1" d="M31.22,41.72h0Z" transform="translate(-2.93 -1.41)"/><path class="cls-1" d="M21.09,43.88a0.13,0.13,0,0,0-.23,0A0.17,0.17,0,0,0,21.09,43.88Z" transform="translate(-2.93 -1.41)"/><path class="cls-1" d="M4.25,43.51l-0.05,0a0.48,0.48,0,0,1,0,.09Z" transform="translate(-2.93 -1.41)"/><path class="cls-1" d="M4.19,43.58l-0.06.07S4.18,43.64,4.19,43.58Z" transform="translate(-2.93 -1.41)"/><path class="cls-1" d="M4,43.79l0.12-.14S4,43.63,4,43.79Z" transform="translate(-2.93 -1.41)"/><path class="cls-1" d="M5.65,43.77l0-.2A1.2,1.2,0,0,0,5.65,43.77Z" transform="translate(-2.93 -1.41)"/><path class="cls-1" d="M6.08,43.71c-0.1,0-.26-0.43-0.4-0.3v0.16C5.73,43.26,6,44.05,6.08,43.71Z" transform="translate(-2.93 -1.41)"/><path class="cls-1" d="M7.88,46.22l-0.36-.16c0.06,0.22.15,0.51,0,.56C8,47.26,7.41,46.13,7.88,46.22Z" transform="translate(-2.93 -1.41)"/><path class="cls-1" d="M9,46.52c-0.19.1,0,.32,0,0.44C9.11,46.76,9.14,46.71,9,46.52Z" transform="translate(-2.93 -1.41)"/><path class="cls-1" d="M17,46.38v0.51C17.18,46.82,17,46.7,17,46.38Z" transform="translate(-2.93 -1.41)"/><polygon class="cls-1" points="15.58 42.29 15.43 41.98 15.37 42.45 15.58 42.29"/><polygon class="cls-1" points="16.59 45.91 16.53 45.98 16.77 45.79 16.59 45.91"/><path class="cls-1" d="M33,46.57L33,45.95C32.86,46.07,32.88,46.77,33,46.57Z" transform="translate(-2.93 -1.41)"/><path class="cls-1" d="M38.83,45.59c0.08,0.31.26,0.5,0.34,0.19A0.69,0.69,0,0,0,38.83,45.59Z" transform="translate(-2.93 -1.41)"/><polygon class="cls-1" points="53.45 43.81 53.35 44.03 53.56 43.84 53.45 43.81"/><path class="cls-1" d="M23.09,98c0.15,0.09.52,0.22,0.48,0.11L23,97.82Z" transform="translate(-2.93 -1.41)"/><path class="cls-1" d="M24.43,97.94a4,4,0,0,0-1.34-.67c0.56,0.32.3,0.24,1,.61,0,0.1-.25.06-0.47,0,0.15,0.09-.18.06,0.19,0.26s0.58,0,.24-0.31A1.75,1.75,0,0,1,24.43,97.94Z" transform="translate(-2.93 -1.41)"/><path class="cls-1" d="M27.93,90.67l-0.09,0A0.13,0.13,0,0,0,27.93,90.67Z" transform="translate(-2.93 -1.41)"/><path class="cls-1" d="M29.47,85.89a0.16,0.16,0,0,0,.13.08A0.18,0.18,0,0,0,29.47,85.89Z" transform="translate(-2.93 -1.41)"/><path class="cls-1" d="M30.36,85.2l-0.05,0C30.37,85.23,30.41,85.22,30.36,85.2Z" transform="translate(-2.93 -1.41)"/><path class="cls-1" d="M27.93,90.67l0.23-.07C28,90.53,28,90.62,27.93,90.67Z" transform="translate(-2.93 -1.41)"/><path class="cls-1" d="M23.32,96.36a0.48,0.48,0,0,0,.14.13l0-.09Z" transform="translate(-2.93 -1.41)"/><path class="cls-1" d="M27.82,92.94v0l0.25,0.11Z" transform="translate(-2.93 -1.41)"/><path class="cls-1" d="M27.41,94.59a4.12,4.12,0,0,0-.72-0.31,0.89,0.89,0,0,1,.34.2Z" transform="translate(-2.93 -1.41)"/><path class="cls-1" d="M25.59,96.8l0.06,0.07Z" transform="translate(-2.93 -1.41)"/><path class="cls-1" d="M28.29,91.8l0.2,0Z" transform="translate(-2.93 -1.41)"/><path class="cls-1" d="M23.6,46.15l0.1,0A0.13,0.13,0,0,0,23.6,46.15Z" transform="translate(-2.93 -1.41)"/><polygon class="cls-1" points="22.71 42.04 22.75 42.06 23.05 41.96 22.71 42.04"/><path class="cls-1" d="M31.36,83.77h0C31.41,83.83,31.4,83.8,31.36,83.77Z" transform="translate(-2.93 -1.41)"/><path class="cls-1" d="M32.25,69.19c-0.5.17-.64-0.27-1.2,0A2.66,2.66,0,0,0,32.25,69.19Z" transform="translate(-2.93 -1.41)"/><path class="cls-1" d="M23.41,96.35a0.13,0.13,0,0,1,0-.06A0,0,0,0,0,23.41,96.35Z" transform="translate(-2.93 -1.41)"/><path class="cls-1" d="M31,69.17h0L31,69.2Z" transform="translate(-2.93 -1.41)"/><path class="cls-1" d="M31.61,80.09h0Z" transform="translate(-2.93 -1.41)"/><path class="cls-1" d="M30.41,82.66l0.08-.05A0.13,0.13,0,0,0,30.41,82.66Z" transform="translate(-2.93 -1.41)"/><path class="cls-1" d="M31,78.59s0.13,0,.06-0.09H31C31.06,78.53,31.09,78.56,31,78.59Z" transform="translate(-2.93 -1.41)"/><path class="cls-1" d="M31.15,77.14l-0.12,0,0,0Z" transform="translate(-2.93 -1.41)"/><path class="cls-1" d="M25,50.11a5.07,5.07,0,0,1,.47-0.19C25.14,50,25,49.88,25,50.11Z" transform="translate(-2.93 -1.41)"/><path class="cls-1" d="M23.62,96.47a0.57,0.57,0,0,1-.21-0.12,0.18,0.18,0,0,0,0,.05Z" transform="translate(-2.93 -1.41)"/><path class="cls-1" d="M26.6,78l0.11-.21A0.33,0.33,0,0,0,26.6,78Z" transform="translate(-2.93 -1.41)"/><path class="cls-1" d="M27,59.87l-0.07,0S27,59.87,27,59.87Z" transform="translate(-2.93 -1.41)"/><path class="cls-1" d="M26.69,77.16a1.28,1.28,0,0,0,.4-0.08l-0.14,0Z" transform="translate(-2.93 -1.41)"/><path class="cls-1" d="M25.53,49.92h0Z" transform="translate(-2.93 -1.41)"/><path class="cls-1" d="M23.86,48.88c0,0.2.72-.1,1.14-0.18,0.27,0.19-.49.26-0.83,0.44a4.59,4.59,0,0,1,.92.15,0.94,0.94,0,0,1-.31.09c0.61,0,.16.47,0.92,0.46l-0.17.07a9.8,9.8,0,0,1,1-.29c0,0.09.5,0.05,0,.21a0.49,0.49,0,0,0-.34,0l0.23,0c-0.65.26-.27-0.07-0.76,0.06,0.27,0.13.88,0.21,0.73,0.4-0.65.2-.31-0.28-0.84,0.06l0.19-.29c-1,.44,0-0.15-1,0.29-0.12.34,0.42,0.24,0.3,0.58,0.38,0,.54-0.16.92-0.18,0.77,0.25-1.58.74-.62,0.82,0.46,0,1.3-.2.91,0.13l-0.76.1c0,0.3,1.11-.09.68,0.32a3.42,3.42,0,0,1-.38-0.1c-0.54.33,0.46,0,.49,0.19l-0.66.18c0.17,0.28.72,0.5,0.92,0.82a1.32,1.32,0,0,0-.61.13c0.43,0.35.11,0.92-.2,1.41l0.61,0a0.56,0.56,0,0,1-.37.1c-0.19.2,0.37-.06,0.61,0,0.06,0.08-.31.18-0.49,0.16,0.54,0.18,1.2.61,0.64,1l-0.18,0c-0.19.27,1.23,0.05,0.73,0.36l-0.11,0c-0.17.55,0.46,1-.36,1.55,0.85-.05-0.3.56,0.87,0.42a3.19,3.19,0,0,0-1.09.78,8.58,8.58,0,0,0,.89.18l-0.61.09,0.66,0.1-0.72.19L27,59.83a0.81,0.81,0,0,1,.44-0.16c0.3,0.16-.37.54-0.68,0.58l0.58,0.4a1.18,1.18,0,0,1-.51-0.09c0.66,0.17-.64.12,0,0.28a2.21,2.21,0,0,1,.49,0c-0.35.16-.33,0.41-0.16,0.59H26.66A4.74,4.74,0,0,0,27,62.5a1.35,1.35,0,0,1,1-.09l-0.65.11a2.43,2.43,0,0,1,.74,0,1.33,1.33,0,0,1-.95.1l0.24,0.16c-0.19,0-.3,0-0.55,0,0.41,0-.63.36,0.08,0.4l-0.19,0A5,5,0,0,0,27,64a2.46,2.46,0,0,1,.9.16,1.52,1.52,0,0,0-.53.81,2,2,0,0,0,.82.1c-0.51,0-.45.32-0.82,0.2a1.48,1.48,0,0,0,.56.84,1.15,1.15,0,0,1,.47-0.09c0.09,0.08-.21.19-0.46,0.19l-0.05,0c0.78,0.46-1.46,1.16-.38,1.51l-0.05,0,0.57,0.39a2.76,2.76,0,0,1-.7,0c0.86,0.42-.12.68,0.45,1-1.51.27,0.11,1-.86,1.33l0.36,0c0.35,0.1-.2.11-0.29,0.18a1.43,1.43,0,0,1,.51,0c0.4,0.82-.57,1.65-0.92,2.45-0.11.29,1.83,0.27,1,.6l-0.65-.14c0.75,0.65-.11,1.23.52,1.88a0.66,0.66,0,0,1-.34-0.12c-0.48.09-.07,0.46,0.33,0.5a1.76,1.76,0,0,1-.56,0c-0.29.1,0.58,0.37,0.1,0.39a0.31,0.31,0,0,1-.19-0.08c0.22,0.1-.1.37,0.46,0.35-0.28.2,0.2,0.45-.14,0.6,0.6,0.18-.33.35,0.53,0.48-0.9-.11-0.76.31-0.36,0.5C27,78,27,78.14,26.59,78c0,0.16.14,0.33,0.61,0.36-1.11.16,0.79,0.71-.61,0.7a4.54,4.54,0,0,1,.83,1.49c-0.89-.15,0-0.49-1-0.6,0.3,0.46,1,.81.76,1.18A0.79,0.79,0,0,1,26.7,81c0.3,0.46-.2.77,0.22,1.21a0.57,0.57,0,0,1-.23-0.12c0,0.08-.16.14,0.25,0.2l-0.1-.09a4.49,4.49,0,0,1,1.48.56c-1.13-.33-0.36.31-1.78-0.14a1.07,1.07,0,0,0,.52.19,0.64,0.64,0,0,1-.55-0.08c0.17,0.29.62,0.28,0.57,0.51a4.87,4.87,0,0,1-.49-0.16c0.36,0.19.72,0.38,0.52,0.54a0.36,0.36,0,0,1-.26-0.1c0,0.34.91,0.77,0.46,1.07-0.82-.28-0.31.07-1-0.06l0.18,0.24h0.37c0,0.17.45,0.43,0.18,0.53l-0.27-.19,0.07,0.35,0.32-.13c0.34,0.26.93,0.18,0.68,0.37a1,1,0,0,1-.5.17h0c0.21,0.14.44,0.28,0.23,0.37s-0.8-.21-1-0.22c0.59,0.22.08,0.44,0.7,0.7a2.87,2.87,0,0,0-.61-0.17l0.48,0.18a0.89,0.89,0,0,1-.56,0c-0.15.22,0.94,0.14,0.47,0.33a1,1,0,0,1-.17-0.1c-0.28.24,0.18,0.63-.13,0.84-0.75-.1-0.12-0.27-0.76-0.33,0,0.41.69,1,.42,1.33l0.1,0c1,0.32-.58.14-0.15,0.45A1.72,1.72,0,0,0,25.91,89c-0.23.21,0.12,0.58,0.34,1L26,89.92a1.24,1.24,0,0,0-.41.47,1.09,1.09,0,0,0,.58.25c-1.63.06,0.53,1.17-.84,1.24a0.26,0.26,0,0,0-.21-0.15l0.13,0.44a2,2,0,0,0,.65.06,0.57,0.57,0,0,1,.39.39,1.38,1.38,0,0,0-1-.22c0.14,0,.28.1,0.42,0.14-0.85-.05.88,0.31,0.27,0.41l-0.23-.09c0.09,0.14.36,0.32,0.26,0.41a2.4,2.4,0,0,1-.62-0.32c0,0.16.87,0.6,0.32,0.58-0.12-.11-0.1-0.2-0.22-0.31-0.64,0-.5,0-0.63.1h0l-0.35.16h0.18c1.27,0.62.12,0.45,0.9,1a1.82,1.82,0,0,0-1-.41,1.08,1.08,0,0,1-.54,0c0.42,0.27-.43.07,0.19,0.47a0.82,0.82,0,0,1-.51-0.07,0.81,0.81,0,0,0,.56.17c0.55,0.45-.95.28-0.21,0.92,0.25,0.42.85,0.69,1.06,1.08a1.2,1.2,0,0,1-.64-0.32c-0.32,0-.31.18-0.15,0.39a1.37,1.37,0,0,0-.52-0.14c0,0.13.64,0.32,0.32,0.37a7.24,7.24,0,0,1-.69-0.38c0.12,0.19.41,0.45,0.52,0.64a1.74,1.74,0,0,1-.64-0.39,1.11,1.11,0,0,0,.62.74l0.22,0a1,1,0,0,1-.52-0.21c-0.34-.28.25-0.12,0.43-0.06l0.08,0.14c1.11,0.3,0-.45.11-0.62L25,97.07l-0.57-.44a1.45,1.45,0,0,1,.75.3c0.44,0-.23-0.23.24-0.19a0.24,0.24,0,0,1,.13.05l-0.18-.22c0.15,0.09.56,0.18,0.42,0.22,0.54-.09-0.44-0.61.19-0.49l0,0c-0.14-.44-0.56-0.24-1.15-0.74l1.48,0.33-0.56-.24a0.27,0.27,0,0,1,.33,0,2.58,2.58,0,0,0-.6-0.27c0.58,0-.09-0.56.85-0.28a1.16,1.16,0,0,1-.64-0.24c1,0.28-.1-0.27.41-0.27,0.5,0.22.17,0.28,0.68,0.27-0.83-.39.29-0.24,0.17-0.43-0.69-.23-0.19-0.39-0.35-0.69a1.87,1.87,0,0,0,.83-0.43l0.11,0C26.93,93.14,27.13,93,27,92.77a1.8,1.8,0,0,1,.74.36l0-.15a0.65,0.65,0,0,1-.37-0.31L28,92.87c0-.21-0.5-0.59-0.07-0.74a3.91,3.91,0,0,1-1.68-.57,2.65,2.65,0,0,1,.81.3s-0.2-.15-0.07-0.16l0.42,0.24c0.23-.06-0.36-0.17-0.29-0.25,0.38,0.11.29,0,.59,0.11,0,0-.18,0,0,0.11a1,1,0,0,1,.66-0.11,1,1,0,0,1-.54-0.24c0-.21.48,0.06,0.71,0a0.79,0.79,0,0,0-.51-0.34,0.93,0.93,0,0,1,.45,0c-0.22-.17.07-0.5-0.57-0.56l0,0,0,0h0c-0.48-.49.51-0.61,0.36-1l0.19,0.05A1.23,1.23,0,0,0,27.92,89a0.91,0.91,0,0,1,.61,0c-0.1-.19-0.31-0.26.06-0.41,0.3,0.24.31,0,.21,0.22,0.21-.16.53-0.13,0.06-0.48,0.47,0.19.66,0,.53-0.13L29,88.29A0.29,0.29,0,0,1,29.08,88l0.63,0.21c0.89-.23-1.16-1.06.23-1.07-0.43-.21-0.37.15-0.88-0.07a5.26,5.26,0,0,1,1.12-.22c0.42-.19-0.9-0.46-0.59-0.68a1.72,1.72,0,0,1-1-.37,1.52,1.52,0,0,1,1.18.13c0,0.05-.07.06-0.15,0a0.42,0.42,0,0,0,.42.16l-0.23-.07a0.77,0.77,0,0,1,.66-0.17,0.38,0.38,0,0,0-.51-0.06c0.39-.18.09-0.38,0.37-0.59a0.76,0.76,0,0,1-.41,0c0.37-.31-0.4-0.25-0.46-0.52,0.38-.07.84,0.22,0.59-0.09a1.05,1.05,0,0,1,.8.19c-0.41-.32.38-0.38,0.48-0.5l0.17,0.16a0.19,0.19,0,0,1-.07-0.22l-0.48,0a0.29,0.29,0,0,1,.3-0.08,7.64,7.64,0,0,1-1.18-.31c0.25-.05-0.2-0.34.42-0.26-0.27.26,0.63,0.08,0.68,0.35-0.06-.06-0.05-0.12,0-0.18a0.26,0.26,0,0,1,.16.06c0.61-.19-0.68-0.26-0.61-0.56a0.59,0.59,0,0,0,.61,0,1.12,1.12,0,0,1-.84-0.2c0.31-.15-0.16-0.24-0.12-0.34l-0.15.09a0.42,0.42,0,0,1-.37-0.34c0.27,0,.17.15,0.3,0.13-0.59-.25.69-0.23,0.31-0.51,0.25-.06.66,0.1,0.83,0-0.42-.31.52-0.18,0.18-0.49a1,1,0,0,1-.8-0.22L31,81.82l-0.65-.37a1.47,1.47,0,0,1,.16.36,0.85,0.85,0,0,0-.65-0.16c0.73-.05-0.36-0.39.15-0.51l1.17,0.18c0.57-.21-0.52-0.6-0.17-0.94l-0.22.09c-0.46-.12,0-0.24-0.21-0.39a2.4,2.4,0,0,0,.79,0c-0.29,0,.06-0.27-0.72-0.41l0.54-.1c0.25-.28-1.07-0.49-0.9-0.76a2.78,2.78,0,0,1,1,.27c0-.1.1-0.18-0.17-0.21,0.25,0-.49-0.33-0.11-0.38a0.87,0.87,0,0,1-.53-0.23,1,1,0,0,1,.19,0A1.3,1.3,0,0,0,30,78.15c1.26-.16,0-0.84,1.07-1a2,2,0,0,1-.22-0.69c0.12,0,.2,0,0.15.05,0.39-.23-1.11-0.26-0.68-0.53,0.65-.1.33,0.19,0.58,0.11,1.3,0.07-.14-0.38.63-0.52l0.07,0.06C32,75.51,31.1,75.21,31.21,75a1,1,0,0,0,.2,0,1.72,1.72,0,0,1-1-.82,1.71,1.71,0,0,0,.78.11,3.55,3.55,0,0,1-1-.25,3.65,3.65,0,0,1,1.09-.19l0,0.21c0.72-.06,0-0.27.12-0.37l0.31,0C31.66,73.38,30.88,73.34,31,73l-0.24,0c-0.77-.22.44-0.14-0.13-0.35l0.79,0A4.23,4.23,0,0,1,30.49,72a4.53,4.53,0,0,1,1.21.59,0.48,0.48,0,0,0-.43-0.5c0.07,0.05.27,0.12,0.14,0.17-0.62-.17-0.91-0.38-0.89-0.62,1.53,0.09.41-.62,1.6-0.78-0.56-.44.24-0.86,0.16-1.37-1.19.18,0-.15-1.26-0.12-0.08-.12-0.06-0.16,0-0.17l0.73-.36a1.16,1.16,0,0,1,.54.1,1.7,1.7,0,0,1,.84-0.29c-0.44,0-.63-0.08-0.46-0.24l-0.56.22c-0.65-.35,1-0.33.38-0.68L32.9,68a1.14,1.14,0,0,0-1-.86,0.93,0.93,0,0,1,.56,0c0.13-.46-1.08-1-0.49-1.33l0.3,0c-0.09-.08-0.57-0.12-0.27-0.24a0.69,0.69,0,0,0,.32,0c-0.1,0-.53-0.2-0.36-0.32l0.34,0.08c0.36-.46-0.86-0.63-1.09-1a1.46,1.46,0,0,0,1.27-.6h0.12c0.07-.52-0.8-0.81-1.18-1.25,0.93-.38.31-1,0.79-1.54a1.27,1.27,0,0,1-.78,0c0.17-.13-0.64-0.24.17-0.31v0c0.78-.17.55-0.37,0.54-0.55l-1.05.09c1.47-.64-0.71-1.13.62-1.55-0.28-.08-0.29-0.21-0.57-0.29l0.56-.07a0.9,0.9,0,0,0,0-.85l0.41,0c0-.22-1.65,0-1.72-0.21l0.83-.19c-0.07-.37.6-0.87-0.22-1.11a0.78,0.78,0,0,1,.41,0c0-.18.45-0.78-0.69-0.51,0.74-.14,0-0.4-0.36-0.53l0.55-.07a1.81,1.81,0,0,1-1.16-.2c0.06-.07.43-0.13,0.3,0,0.25-.24-0.54,0-0.3-0.32l0.37,0c0-.2-0.18-0.15-0.61-0.17-0.24-.07.07-0.38,0.55-0.51-0.31,0-.73,0-0.61-0.13a0.81,0.81,0,0,1,.37,0c0.31-.39-0.73-0.34-0.24-0.67a1.22,1.22,0,0,0,.32-0.11,0.7,0.7,0,0,1,0,.45,3.34,3.34,0,0,1,1.28-.31c-0.41-.09-1.3-0.19-1.1-0.44l0.17-.06h0.06c0-.06,0-0.09-0.11-0.11a0.32,0.32,0,0,0,.11-0.2c0.41-.12.17-0.28,0.17-0.39a2.47,2.47,0,0,0-.91.21s0.07,0,.11.07a0.13,0.13,0,0,0,.07,0h0a1.85,1.85,0,0,1,.09.24c-0.3,0-.55,0-0.27-0.23l-0.92.06c0.74-.31,1.09-0.67,1.55-0.82a1.54,1.54,0,0,0-1.45-.62c-0.15-.05.27-0.17,0.42-0.24a0.6,0.6,0,0,0,.27.08,0.94,0.94,0,0,0-1-.35c0.27-.3.69,0,0.5-0.31l0.23,0c1-.9-2.07-0.48-0.78-1.52a0.56,0.56,0,0,1-.23.15c0.44-.93-1-1.34-0.24-2.37,0.14-.27-0.32-0.15-0.7-0.17l0.56-.22H27c-0.58-.15,1.24-1,0.2-1.07l-0.37.18c0-.16-0.37-0.36.08-0.48-0.07,0-.42.09-0.23,0l0.3-.1L26.37,44c0.13-.33,1.2-0.36,1.13-0.77a2.11,2.11,0,0,0-1.19,0,0.62,0.62,0,0,1-.43.32l-0.2-.07a5.92,5.92,0,0,0-2.33,1l0.61,0-0.4.21-0.09-.17c-0.37.24,0,.18,0.28,0.17a1.53,1.53,0,0,0-.44.25l0.91-.08a2.2,2.2,0,0,0-.86.34A5.06,5.06,0,0,1,24.41,45c-0.37.24-.7,0.32-0.32,0.32a1,1,0,0,1-.49.1,1.13,1.13,0,0,0,.7.14c-0.46.27,0.25,0.32-.6,0.58a1.59,1.59,0,0,1,.79.06c-1.06.14,0.06,0.39-1,.68,0.95-.15.55,0.35,1.13,0.43-0.08,0-.23,0-0.19,0a1.36,1.36,0,0,1-.44.41,4.25,4.25,0,0,1,1.48-.08,7.73,7.73,0,0,1-1.59.42c0.61-.19.69,0.1,1.18-0.1a2.64,2.64,0,0,1-.79.42c0.95-.25.19,0.07,0.8,0-0.41.31-.87,0.3-0.52,0.42A1,1,0,0,1,23.86,48.88Zm2.84,4.35h0l-0.05-.09Zm0.1,0.41a0.4,0.4,0,0,0,0-.18,0.56,0.56,0,0,1,.38,0A0.88,0.88,0,0,0,26.79,53.63Zm3.61-1.71c0.09,0.05,0,.1-0.12.13a0.38,0.38,0,0,0-.09-0.1H30.12Z" transform="translate(-2.93 -1.41)"/><path class="cls-1" d="M29.65,52l0,0L29.49,52h0.18Z" transform="translate(-2.93 -1.41)"/><path class="cls-1" d="M27.83,90.7h0Z" transform="translate(-2.93 -1.41)"/><polygon class="cls-1" points="23.77 58.04 23.91 58.02 23.79 58.01 23.77 58.04"/><path class="cls-1" d="M25.31,92.4h0Z" transform="translate(-2.93 -1.41)"/><path class="cls-1" d="M24.89,93.31l-0.23.07A0.71,0.71,0,0,0,24.89,93.31Z" transform="translate(-2.93 -1.41)"/><path class="cls-1" d="M24.39,94L24.61,94h0Z" transform="translate(-2.93 -1.41)"/><path class="cls-1" d="M26.69,82.08l0,0C26.58,82,26.61,82,26.69,82.08Z" transform="translate(-2.93 -1.41)"/><path class="cls-1" d="M27.29,85.87a1.66,1.66,0,0,1-.24-0.17C27,85.76,27,85.8,27.29,85.87Z" transform="translate(-2.93 -1.41)"/><path class="cls-1" d="M26.59,78h0a0.1,0.1,0,0,1,0,0v0Z" transform="translate(-2.93 -1.41)"/><path class="cls-1" d="M27.1,85.54c-0.12,0-.11.1,0,0.16S27.17,85.61,27.1,85.54Z" transform="translate(-2.93 -1.41)"/><path class="cls-1" d="M23,97l0,0,0.08,0Z" transform="translate(-2.93 -1.41)"/><path class="cls-1" d="M23.08,97l0,0.06S23.14,97.07,23.08,97Z" transform="translate(-2.93 -1.41)"/><path class="cls-1" d="M23.23,97.23l-0.1-.13S23.09,97.16,23.23,97.23Z" transform="translate(-2.93 -1.41)"/><path class="cls-1" d="M23.63,96.12L23.44,96Z" transform="translate(-2.93 -1.41)"/><path class="cls-1" d="M23.68,95.81c-0.07.05-.47,0-0.39,0.16L23.44,96C23.18,95.89,24,96,23.68,95.81Z" transform="translate(-2.93 -1.41)"/><path class="cls-1" d="M26.49,95.43l-0.24.2a0.62,0.62,0,0,1,.53.2C27.5,95.71,26.3,95.73,26.49,95.43Z" transform="translate(-2.93 -1.41)"/><path class="cls-1" d="M27.05,94.75a0.49,0.49,0,0,0,.41.14A0.36,0.36,0,0,0,27.05,94.75Z" transform="translate(-2.93 -1.41)"/><path class="cls-1" d="M28.74,89l0.49,0.14A0.76,0.76,0,0,0,28.74,89Z" transform="translate(-2.93 -1.41)"/><polygon class="cls-1" points="23.51 85.89 23.17 85.91 23.62 86.07 23.51 85.89"/><polygon class="cls-1" points="27.21 86.07 27.27 86.14 27.13 85.91 27.21 86.07"/><path class="cls-1" d="M31.62,77.45l-0.63,0C31.09,77.5,31.79,77.59,31.62,77.45Z" transform="translate(-2.93 -1.41)"/><path class="cls-1" d="M31.3,73.06c0.32,0,.52-0.15.22-0.24C31.47,72.92,31.22,73,31.3,73.06Z" transform="translate(-2.93 -1.41)"/><polygon class="cls-1" points="28.93 58.53 29.15 58.59 28.95 58.45 28.93 58.53"/></svg>